<svg xmlns="http://www.w3.org/2000/svg" viewBox="0 0 250 104"><defs><style>.cls-1{fill:#010a20;stroke:#3fa9f5;stroke-miterlimit:10;}.cls-2{fill:#45c8ff;}</style></defs><g id="Layer_2" data-name="Layer 2"><g id="Layer_1-2" data-name="Layer 1"><rect class="cls-1" x="0.5" y="0.5" width="249" height="103" rx="8"/><path class="cls-2" d="M52.66,63.9a.92.92,0,0,1,.3-.13,9.63,9.63,0,0,1-.27-1c-.1-.42,0-.67.33-.76-.08.17,0,.29.2.33a.3.3,0,0,1,.27.4h.35c-.08.22-.08.31,0,.26s.09,0,.09.27c.32,0,.47.18.45.53a1.18,1.18,0,0,0,.26.87.37.37,0,0,0,.3.1c.08,0,.12.1.12.37.12-.18.25-.09.38.26a2.67,2.67,0,0,0,.39.74q.18.06.09-.27c-.06-.22,0-.29.21-.2-.08.36-.05.54.08.57a.44.44,0,0,1,.33.3c0,.22,0,.26-.12.13s-.16-.2-.24-.2,0,.17.12.23a1,1,0,0,1,.36.24c0,.17-.09.21-.15.1s-.13-.15-.21-.1c.08.09.18.18.3.29s.2.13.24,0,.09,0,.06.1l-.12.2a.36.36,0,0,0-.06.2c0,.07.06.1.18.1s.09-.09.05-.14a.34.34,0,0,1-.05-.2,2.83,2.83,0,0,1,.23.34.57.57,0,0,0,.3.26c0,.14,0,.16-.12.07s-.16-.07-.24.07.1.24.18.2a2.15,2.15,0,0,1,.3-.14,3.33,3.33,0,0,0,.59.94,4.77,4.77,0,0,1,.65.93.56.56,0,0,0,0,.47,2.76,2.76,0,0,1,.21.4,1.25,1.25,0,0,1-.18.5.41.41,0,0,0,0,.43c-.08,0-.13,0-.15-.07a.16.16,0,0,0-.15-.07c.08.23.08.34,0,.34s0,.09.12.27a6,6,0,0,1-.29,1,.87.87,0,0,0,0,.77.48.48,0,0,0-.33.13,2.5,2.5,0,0,1-.38.27q.16.06.06.33a.87.87,0,0,1-.12.2.74.74,0,0,0,0,.47.28.28,0,0,1,0,.33s.08.07.23.07c-.11.13-.11.2,0,.2,0,.22-.11.29-.23.23a1.48,1.48,0,0,1-.3-.23,2.23,2.23,0,0,1-.06.56,1.36,1.36,0,0,0,0,.57c-.47.13-.65.62-.53,1.46a4.41,4.41,0,0,1-.5.6,1.31,1.31,0,0,0-.33.8,2.25,2.25,0,0,0-.42.3.69.69,0,0,0-.17.5,1.23,1.23,0,0,0-.92.67l-.56,1.06c-.16,0-.18-.13-.06-.26a.63.63,0,0,0-.54.23,1.87,1.87,0,0,0-.26.53q-.09.3-.21.6a.84.84,0,0,1-.36.44,1.14,1.14,0,0,0,.15.23.2.2,0,0,1,0,.23.22.22,0,0,0-.32,0l-.3.3a2.35,2.35,0,0,1-.33.3.26.26,0,0,1-.35,0c.12.27.12.4,0,.4a1.27,1.27,0,0,1-.45-.1.89.89,0,0,0-.47-.06c-.14,0-.19.18-.15.49a1.07,1.07,0,0,0-.74.11l-.56.36-.33-.2q-.21-.13-.09-.27c-.08.14-.18.16-.32.07s-.25-.09-.33,0q-.12-.14.15-.33a.5.5,0,0,0,.21-.53.3.3,0,0,1,.29,0c.12,0,.18,0,.18-.14a.63.63,0,0,1,.15.34c0,.13,0,.22-.09.26s-.06,0-.06-.1,0-.1-.12-.1a.55.55,0,0,0,.18.33c.2.05.27,0,.21-.23s0-.32.09-.36L48.57,85a1,1,0,0,1-.29-.33.7.7,0,0,0,.14-.34.2.2,0,0,1,.21-.2c0-.09,0-.13-.06-.13s-.08,0-.12-.13-.06.13-.06.4c-.19-.05-.28-.14-.26-.27a1.31,1.31,0,0,1,.09-.33c.08,0,.12,0,.15,0a.08.08,0,0,0,.08.06.7.7,0,0,0,.15-.4,1.14,1.14,0,0,1,.15-.46s0-.07.12-.07.12,0,.12-.07a.76.76,0,0,0,.2-.33.71.71,0,0,1,.27-.33q.12-.33.3-.33t.15,0a.18.18,0,0,0,.2,0,1.23,1.23,0,0,0,.3-.64c0-.24.07-.52.09-.83a7.4,7.4,0,0,1,.12-.93,2.66,2.66,0,0,1,.38-.94.3.3,0,0,0-.24-.23c-.11,0-.15-.14-.11-.37.23.09.36.1.38,0s.13-.15.33-.24a.92.92,0,0,1-.18-.3c0-.11-.14-.16-.3-.16a1,1,0,0,0,.36-.13s.1,0,.18,0,0-.18-.06-.27a.29.29,0,0,1-.12-.34.46.46,0,0,0-.09.17q0,.1-.15,0a.59.59,0,0,1,.06-.33s0-.15-.06-.33a2.07,2.07,0,0,1,.47-.2c.16-.05.24-.18.24-.4-.16,0-.23,0-.21.1s0,.1-.14,0c.15-.09.23-.19.23-.3s.06-.17.18-.17,0-.18-.18-.27a.76.76,0,0,0,.18-.66.88.88,0,0,1,.36-.14q-.18-.52.09-.63c.17-.07.24-.28.2-.63a.26.26,0,0,0-.26-.2c-.14,0-.15-.07,0-.2h-.36a.56.56,0,0,0-.06-.3c0-.07,0-.15.06-.23l-.56-.24c-.18-.06-.25-.14-.21-.23a.45.45,0,0,0-.18-.3,1.25,1.25,0,0,1-.29-.5c0-.13,0-.2.06-.2h.06l-.12-.13s-.06,0-.06-.07a2.12,2.12,0,0,1,.06-.33q.06-.27.12-.6a9.12,9.12,0,0,1,.17-.94q.12-.52-.12-.66c0-.09,0-.12.06-.1s.08,0,.12,0-.1-.14-.18,0a.3.3,0,0,1-.23.17,1.08,1.08,0,0,1-.18,1,1.56,1.56,0,0,0-.3,1.1c-.15.09-.27,0-.35-.13s-.14-.14-.18.13c-.08-.09-.22-.22-.41-.4s-.34-.15-.42.07a2.74,2.74,0,0,0-.15-.4,1.35,1.35,0,0,1-.09-.54c-.08,0-.1.08-.08.1s0,.08,0,.17a3.81,3.81,0,0,1-.21-.93,3.49,3.49,0,0,1,0-1q-.3.14-.27.6c0,.31-.05.51-.2.6a.77.77,0,0,1,.08.4c0,.09,0,.22-.08.4-.08,0-.12-.09-.12-.14s0-.06-.12-.06a.3.3,0,0,0,.06.2s0,.11,0,.2a.15.15,0,0,1-.21-.07A.25.25,0,0,0,47,68.7a.32.32,0,0,0-.23.1c-.08.06-.1.1-.06.1a.69.69,0,0,1-.39-.47c-.06-.22-.25-.33-.56-.33a2.92,2.92,0,0,0,.06-1q-.06-.3-.18-1a.55.55,0,0,0-.06.33,1,1,0,0,0-.29-.13c0-.14.05-.2.17-.2s0-.2-.15-.2a.35.35,0,0,0-.26.13q0,.14.24.27a.87.87,0,0,0-.18.26,1.06,1.06,0,0,1-.18.27c.16,0,.2.12.12.23s0,.19.18.23a.19.19,0,0,1-.27.14c-.14,0-.23,0-.27.06a.66.66,0,0,1,.15.24c0,.07.09.1.21.1a1.73,1.73,0,0,1-.48.2q.12.14.21,0c.06-.07.15,0,.27,0-.2.23-.14.34.18.34a.68.68,0,0,0-.57.43.85.85,0,0,1-.62.5c.16.09.2.14.12.17s-.12.12-.12.3c-.2-.23-.28-.24-.24,0a1.37,1.37,0,0,1,0,.57.78.78,0,0,0-.82.23,1.34,1.34,0,0,1-1,.37c0,.27,0,.43.21.5a1.23,1.23,0,0,1,.44.3.43.43,0,0,0,.12.6c.2.13.18.26-.06.4a.19.19,0,0,0,.18.13q.12,0,0,.27c.12,0,.17,0,.17-.14a1.55,1.55,0,0,1-.68,1.5A7.14,7.14,0,0,0,41,76c.55-.27,1.16-.6,1.81-1s1.29-.78,1.92-1.13c-.12-.14-.09-.22.09-.27a.31.31,0,0,0,.27-.33c.15,0,.25,0,.29-.07s.1,0,.18.13a2.34,2.34,0,0,0,.18-.23c.08-.11.14,0,.18.17a.49.49,0,0,1,.71-.2c0,.13-.06.2-.18.2a.5.5,0,0,1,.41.13c.08.09.2.07.36-.07,0,.23-.05.34,0,.34s0,.09,0,.26a.21.21,0,0,1,.18,0,.22.22,0,0,1,.09.1.29.29,0,0,0,.12.13c.05,0,.16,0,.32,0a1.42,1.42,0,0,0,.15-.46c.06-.27,0-.4-.09-.4a.22.22,0,0,1,.27-.07.2.2,0,0,0,.26-.07.16.16,0,0,1-.14.17.28.28,0,0,0-.21.17c0,.13.1.19.18.16s0,.06-.18.24c.08.13.15.11.21-.07s.16-.22.32-.13a1.15,1.15,0,0,0,.15.7,1.34,1.34,0,0,0,.5.3.36.36,0,0,0-.41.1,1.14,1.14,0,0,0-.18.43l-.12.53c0,.18-.08.34-.12.47.2,0,.28,0,.24-.2s0-.22.24-.13a.86.86,0,0,0-.18-.6c.36,0,.51.18.47.56a9.87,9.87,0,0,0-.06,1s-.06,0-.08-.1a.15.15,0,0,0-.15-.1c.08.32.31.43.71.34a.22.22,0,0,0,.12.2c-.08.22-.21.26-.39.13A2.34,2.34,0,0,1,49,77q-.12.14-.36,0c-.16-.09-.18-.2-.06-.34-.2,0-.24.12-.15.34s0,.24-.14.07c0,.17,0,.26.11.26a.32.32,0,0,1,.24.13q-.12.14,0,.24c.08.06,0,.1-.18.1a.17.17,0,0,0,.12.06s.06.05.06.14c.08-.09.1-.16.06-.2s0-.11.06-.2a2,2,0,0,1,.8.26,3,3,0,0,0,.8.34v.4a1.18,1.18,0,0,1-.53-.1,3.74,3.74,0,0,0-.54-.24.47.47,0,0,0,.33.24.76.76,0,0,1,.38.16c0,.18-.09.2-.17.07s-.16-.16-.24-.07a.64.64,0,0,0,.41.6c0,.09-.15.11-.35.07s-.2,0,0,.27q-.06.19-.21,0a.42.42,0,0,0-.27-.17.23.23,0,0,0,.24.2c.12,0,.14.11.06.34a.39.39,0,0,1,.3-.14l-.12.27c0,.09,0,.11.18.07a.34.34,0,0,1-.54.06,4.09,4.09,0,0,1-.26.67.92.92,0,0,0,.09.8c-.12,0-.18,0-.18.07,0-.23-.14-.25-.3-.07a.36.36,0,0,1-.53.07c0,.22,0,.3.21.26s.22,0,.14.27c-.19,0-.3,0-.32.06s-.15.09-.39.14a.35.35,0,0,1,.12-.17s.06-.08.06-.17-.13,0-.15.14-.09.11-.2.06c0,.23,0,.34.08.34s.13.09.09.26a1.11,1.11,0,0,1-.29.27l-.21.1a.81.81,0,0,0-.18.1,1.36,1.36,0,0,0-.26.33c-.08,0-.11,0-.09-.1s0-.1-.09-.1-.26.18-.18.27a.18.18,0,0,1,0,.27.32.32,0,0,1-.21-.24c0-.11-.13-.16-.32-.16,0,.35.12.55.35.6,0,.08-.1.11-.29.06l-.24-.06v-.2c-.08,0-.17,0-.27.13s-.19.11-.26-.07c0,.14.06.2.17.2-.08.18-.14.2-.2.07a1.44,1.44,0,0,0-.15-.27q-.24.13-.21.3t.27.24c-.08.13-.17.12-.27,0s-.19-.14-.27,0c.08.08.13.11.15.06s.07,0,.15.14a1.09,1.09,0,0,1-.53.2c-.28,0-.38.13-.3.26a1,1,0,0,1-.47,0,4.21,4.21,0,0,0-.62,0,2.25,2.25,0,0,0-.6.07.57.57,0,0,0-.38.27,2,2,0,0,0-.39-.07c-.06,0-.17-.09-.32-.27a1.53,1.53,0,0,1-.33.2,3.14,3.14,0,0,1-.38.14.4.4,0,0,1,.11.26c-.11-.09-.26,0-.44.24s-.36.27-.56.1q-.06-.27.06-.24a1.15,1.15,0,0,1,.23.1c-.08-.22-.18-.31-.32-.27l-.51.2a3,3,0,0,0-1.89.6c-.08-.22-.15-.31-.21-.26l-.21.13c-.08-.09-.15-.18-.23-.26s-.06-.21.06-.34c-.16,0-.25.07-.27.2s-.11.18-.27.14q.06.19.18,0t.24,0a.75.75,0,0,1,0,.59c-.32,0-.46-.17-.42-.4a1.51,1.51,0,0,0,0-.6.62.62,0,0,0,.24,0,.84.84,0,0,1,.36,0c0-.17-.12-.24-.36-.19a2.21,2.21,0,0,0,.36-.24c.07-.06.17,0,.29.1,0-.18,0-.26.06-.26a.69.69,0,0,1-.41,0,.5.5,0,0,0-.54.26.53.53,0,0,0-.62-.43,3.26,3.26,0,0,1-.8,0,.72.72,0,0,1,.12.26,3.41,3.41,0,0,0,.06.4q-.18,0-.18.33a.25.25,0,0,1-.24-.1c0-.06-.11-.07-.23,0v-.26a.72.72,0,0,1-.33-.4q-.09-.27-.21-.54a.9.9,0,0,0-.17-.16.69.69,0,0,1-.18-.24,1.14,1.14,0,0,1,.09-.63,1.73,1.73,0,0,0,.09-.83.63.63,0,0,0-.15-.34c-.06,0-.07-.17,0-.4a.59.59,0,0,1,.27.5.57.57,0,0,0,.26.5c.16,0,.21-.12.15-.23a.53.53,0,0,0-.21-.23c0-.09,0-.1.12,0s.16.15.12.24a.49.49,0,0,1,.21-.3,1.48,1.48,0,0,0,.26-.24c.12.18.14.31.06.4a.53.53,0,0,0,.36-.16q.18-.16.18-.24a2,2,0,0,1,.29-.13c.12,0,.14-.22.06-.53.2,0,.3.11.3.46a.39.39,0,0,0,.12-.26.21.21,0,0,0-.12-.2c0-.18.12-.2.24-.07s.15,0,.11-.27h.42c.08.09.11.15.09.17a.76.76,0,0,0-.09.17.87.87,0,0,0,.21-.17c0-.07.14-.08.26,0l-.21-.24a.33.33,0,0,0-.26-.1.29.29,0,0,1,.21-.23A.26.26,0,0,1,37,81q.12-.33.21-.63a.65.65,0,0,0-.21-.63c0-.14,0-.19.15-.17s.17-.06.09-.23,0-.14-.09-.14-.09,0-.09.14a1,1,0,0,0-.47-.87,6.54,6.54,0,0,1-.83-.67c.08.05.14,0,.18-.13a.41.41,0,0,1,.17-.27.2.2,0,0,1,.18.14.44.44,0,0,0,.18.2,1.52,1.52,0,0,0,.56,0l.68,0a4.4,4.4,0,0,0,1.69-.63c.53-.34,1-.64,1.45-.9a.53.53,0,0,0-.71.16.74.74,0,0,1-.83.23.3.3,0,0,0-.15.17c0,.07,0,.15-.08.24s-.25,0-.27-.11-.11-.14-.27-.1q0,.27-.12.24c-.08,0-.15.08-.23.3a1,1,0,0,0-.71-.23.77.77,0,0,1-.66-.31,1.1,1.1,0,0,1-.94,0,2.53,2.53,0,0,0-1-.2.75.75,0,0,0-.3.1c-.12.07-.25,0-.41-.16,0-.09.14-.09.29,0-.11-.22-.23-.33-.35-.33s-.12.11-.12.33c-.12,0-.18-.18-.18-.4a1.22,1.22,0,0,0-.18.26s0-.08,0-.26c-.12,0-.17.08-.15.23s0,.21-.21.17-.06-.3.06-.37.1-.14-.06-.23a.94.94,0,0,0-.47-.17.49.49,0,0,1-.42-.36c0-.09,0-.16,0-.2s.05-.12,0-.2-.18-.07-.41-.07c.08-.18.17-.27.29-.27-.08-.13-.16-.15-.23-.06a.14.14,0,0,1-.24,0v-.07a.19.19,0,0,1,.06-.13.22.22,0,0,1,.06-.14.61.61,0,0,0-.21.27c-.06.13-.21.16-.44.07a.87.87,0,0,1,.08.5.49.49,0,0,1-.32.43s.08.07.24.07a.68.68,0,0,0-.27.46,4.51,4.51,0,0,1-.09.53c-.2,0-.24,0-.12-.1s.1-.16-.06-.16a.31.31,0,0,0-.12.36.6.6,0,0,1,0,.44.56.56,0,0,1-.06-.47,1.17,1.17,0,0,0,0-.53c.19.13.26.13.2,0a1.44,1.44,0,0,0-.2-.33,1.35,1.35,0,0,0,.35-.6c0-.09,0-.14-.18-.14s-.21,0-.17.14a.85.85,0,0,1,.2-.8.75.75,0,0,0,.21-.74c0-.17,0-.16-.12,0s-.12.19-.12,0a2.7,2.7,0,0,0,.15-.73.57.57,0,0,1,.45-.53,1.12,1.12,0,0,1,0-1,1.54,1.54,0,0,0,0-1.13c.15.09.23.09.23,0a.21.21,0,0,1,.12-.2.54.54,0,0,0-.18-.47q.24-.13.15-.57a3.71,3.71,0,0,1-.09-.76,3.35,3.35,0,0,1,.3-1.17,1.86,1.86,0,0,0,.18-1q-.06-.33-.09-.63c0-.2-.05-.46-.09-.77a7.44,7.44,0,0,0-.92-3.1,10.82,10.82,0,0,1-1.15-3.16q-.12-.73-.27-1.47c-.1-.49-.25-1-.44-1.66a1.28,1.28,0,0,1-.09-.34,3,3,0,0,0-.15-.53.58.58,0,0,0-.18-.23c-.08-.07-.12-.12-.12-.17a2.23,2.23,0,0,1,0-.73,3.17,3.17,0,0,0,0-.87A9.67,9.67,0,0,0,28,50.61a14.48,14.48,0,0,1-.48-1.83c-.11-.53-.21-1.06-.29-1.57S27,46.14,27,45.51a18.78,18.78,0,0,0-1-4.29,26.46,26.46,0,0,1-1.09-4c-.08-.62-.15-1.24-.21-1.84s-.13-1.21-.21-1.83a5.86,5.86,0,0,1,.09-2,4.51,4.51,0,0,1,.74-1.7,4.07,4.07,0,0,1,1.31-1.17,2.75,2.75,0,0,1,1.77-.3,3.07,3.07,0,0,1,1.75.84,4.08,4.08,0,0,1,1,2.23,18.62,18.62,0,0,1,1,2.83c.3,1,.59,2.1.86,3.16a9.8,9.8,0,0,1,.21,1.24c.06.51.13,1,.21,1.36a15.68,15.68,0,0,0,.62,2.23c.26.74.5,1.48.74,2.23a11,11,0,0,1,.38,1.5,12.7,12.7,0,0,0,.39,1.5l.24.54c.08.17.15.35.23.53a.8.8,0,0,1,0,.23.17.17,0,0,0,0,.17,2.15,2.15,0,0,0,.39.73,4.59,4.59,0,0,1,.5.8c.55,1.24,1.09,2.56,1.6,3.93a24.67,24.67,0,0,0,1.78,3.8.92.92,0,0,0,.65,0,2.13,2.13,0,0,1,.71-.1c0-.09-.1-.13-.3-.13a9.93,9.93,0,0,0,1-1.57,3.39,3.39,0,0,1,1.25-1.36,1.25,1.25,0,0,1,.2-.74,1.94,1.94,0,0,0,.33-.66s.1,0,.18.13a17.18,17.18,0,0,0,3.26-7.26.87.87,0,0,0,.53-.27,1.41,1.41,0,0,1,.47-.33c-.08-.27,0-.42.12-.47s.2-.22.12-.53a20,20,0,0,0,1.84-2.86c.59-1.11,1.18-2.27,1.77-3.47s1.17-2.42,1.72-3.66,1.09-2.42,1.6-3.53a16.37,16.37,0,0,0,.62-1.83A15.84,15.84,0,0,1,57,27.76a6.27,6.27,0,0,1,.92-1.53,2.6,2.6,0,0,1,1.42-.84,3.84,3.84,0,0,1,2,.17,3.72,3.72,0,0,1,2.43,2.87,3.19,3.19,0,0,1-.33,2.09.16.16,0,0,0,.12.17c.08,0,.1.1.06.23-.2-.08-.31.09-.33.54a4.47,4.47,0,0,1-.15,1.06.66.66,0,0,1-.06.27,1.79,1.79,0,0,0-.11.47,7.16,7.16,0,0,1-.74,1.86c-.34.58-.65,1.16-.92,1.73A5.73,5.73,0,0,0,60.89,38a3,3,0,0,1-.47,1,1,1,0,0,1-.36.33c-.15.09-.17.24-.05.46-.24-.08-.36,0-.36.17a.49.49,0,0,1-.18.43.38.38,0,0,0,0,.3.61.61,0,0,1,.06.3q-.95,2.34-2,4.53t-2,4.53h-.35a.22.22,0,0,1,.09.3,2.31,2.31,0,0,1-.24.37,1.42,1.42,0,0,0-.21.37q-.06.16.18.36a3,3,0,0,0-.47,1.2A1.89,1.89,0,0,1,54,53.71a8.31,8.31,0,0,1-.35,1.3c-.16.42-.32.81-.48,1.16a1.51,1.51,0,0,1-.59.87,4.9,4.9,0,0,1-.35,1.23,3.66,3.66,0,0,0-.3,1.3c-.24,0-.31,0-.21.17s0,.19-.32.1a3.18,3.18,0,0,1,.17.63.6.6,0,0,1-.17.57,9.53,9.53,0,0,1,.44,1.2,1.57,1.57,0,0,0,.62.86c-.2,0-.22.08-.06.23A.78.78,0,0,1,52.66,63.9Zm-22,13.46a.26.26,0,0,1,0-.33q.12-.21.24-.21a.29.29,0,0,0-.06.31.79.79,0,0,1,.06.29h-.24c.08-.09.1-.14.06-.16S30.62,77.27,30.62,77.36Zm.36-1.2h.18v.2H31Zm.53-2.07a.24.24,0,0,0,0-.3,1.61,1.61,0,0,0-.21-.3c.08.18.09.32,0,.4S31.35,74.05,31.51,74.09Zm0,1.94c0-.14,0-.15.12,0s.16.12.24,0v.39a.24.24,0,0,1-.18-.06s-.1,0-.18,0a.28.28,0,0,1,.06-.2S31.59,76.07,31.51,76Zm0,1.53h.18v.2h-.18Zm.36-.4c-.08.09-.08.15,0,.2s0,.06-.12.06h-.18a.21.21,0,0,0,.12-.2C31.69,77.14,31.75,77.11,31.87,77.16Zm-.18,1c.16-.23.24-.25.24-.07S31.85,78.29,31.69,78.16Zm.71-1.93a.71.71,0,0,1-.3.36c-.15.11-.27.12-.35,0s0,0,.21-.1Zm-.35,1.53q-.18.26-.24,0T32.05,77.76ZM33.94,79c.08.14.14.08.18-.16a4.11,4.11,0,0,0,.06-.64,1,1,0,0,0,.29-.16.53.53,0,0,1,.36-.1c-.08,0-.11.09-.09.13s0,0,.09-.07a.72.72,0,0,0,.09.4c.06.09,0,.14-.21.14a1.88,1.88,0,0,0,.33.9.88.88,0,0,1,.15.76c-.08,0-.12,0-.12-.06h-.18a.49.49,0,0,0,.12-.34c-.16,0-.25,0-.27.07a.4.4,0,0,0,0,.17.75.75,0,0,1,0,.2c0,.06-.09.1-.21.1.2,0,.26,0,.18.16a2.57,2.57,0,0,1-.29.44q-.12,0-.09-.24a.66.66,0,0,1,.09-.3c0-.13-.09-.19-.15-.16a.54.54,0,0,0-.18.1q-.09.06-.12,0s0-.1,0-.23a.24.24,0,0,0-.12.3.28.28,0,0,1-.06.3c-.08,0-.12-.05-.12-.14h-.17a1.08,1.08,0,0,0,.2-.33.28.28,0,0,0,0-.33.24.24,0,0,0-.17.06s-.1,0-.18,0,0-.21.06-.23a.16.16,0,0,0,.12-.17c-.12.14-.17.15-.15,0s0-.15-.21-.1a.4.4,0,0,0-.09-.5,2.63,2.63,0,0,0-.44-.3c0,.13-.14.17-.3.13l-.41-.13c.08-.23.25-.29.53-.2a1.32,1.32,0,0,1-.09-.3c0-.11-.09-.15-.21-.1q.18-.27.36-.27a.56.56,0,0,1,.33.1,3,3,0,0,0,.32.2.3.3,0,0,0,.36,0c-.08.09-.09.14,0,.16s.07.13,0,.3c.08,0,.11-.07.09-.23a.7.7,0,0,1,0-.37c.15,0,.25,0,.29.1a.41.41,0,0,0,.24.24q-.18.06-.12.33T33.94,79Zm-1.54.74h.18V80H32.4Zm.47-.8v.2H32.7V79Zm1.43,6.19a1,1,0,0,1-.12-.5.32.32,0,0,0-.24-.36c-.08.22-.14.26-.18.13a.93.93,0,0,1,0-.47c-.15,0-.22,0-.2.17a3,3,0,0,1,0,.37.41.41,0,0,1,.35.33A.42.42,0,0,0,34.3,85.15Zm.41.93c0-.13,0-.21.06-.23a.15.15,0,0,0,.12-.16.41.41,0,0,1,.18.26c0,.13.09.11.17-.07a4.46,4.46,0,0,1,.48,1,.34.34,0,0,0-.15.14.33.33,0,0,1-.15.13c-.16,0-.2,0-.12-.23s.06-.26-.06-.17-.13.1-.17,0a.71.71,0,0,1-.09-.26q0-.17-.06-.3C34.9,86.13,34.83,86.08,34.71,86.08Zm.18-7.26c.08-.09.16-.06.24.07a.71.71,0,0,0,.23.27c-.08.13-.16.12-.23,0A.78.78,0,0,0,34.89,78.82Zm.18,2.4s.08,0,.23,0,.2.13.12.27-.19,0-.21-.07A.29.29,0,0,0,35.07,81.22Zm.47-1.46q-.18.26-.24,0T35.54,79.76Zm.06-2.4c0-.18.08-.2.12-.07s.1.18.18.13,0,.13-.06.1a.1.1,0,0,1-.06-.1s-.06,0-.06.07,0,.07-.12.07-.05.13,0,0,.07-.18.15-.14S35.68,77.36,35.6,77.36Zm.89,3.46c0,.22-.12.29-.36.2C36.17,80.89,36.29,80.82,36.49,80.82Zm-.36,5.86a.3.3,0,0,1,.18,0,.27.27,0,0,0,.12,0,.41.41,0,0,0-.12-.27c.16,0,.16,0,0-.13,0,.09,0,.15-.06.17A.31.31,0,0,0,36.13,86.68Zm3.32-10.12h.18c.08-.14,0-.21-.09-.23s-.19,0-.15.09S39.45,76.47,39.45,76.56Zm2.13,8.73s-.06-.05-.06-.14c-.19,0-.25.07-.17.2S41.58,85.33,41.58,85.29Zm.36-13.66c.12-.18.12-.22,0-.13s-.14.13-.06.13c-.32,0-.4.07-.24.07A.46.46,0,0,0,41.94,71.63Zm2.19-1.73c0-.14.11-.15.21,0a.54.54,0,0,1,.14.37c-.07-.09-.14-.1-.2,0s-.17.07-.33,0c0-.09.08-.13.24-.13C44.19,70,44.17,69.9,44.13,69.9Zm.59-5.13h.18c.08-.14.05-.2-.09-.2s-.19,0-.15.13S44.72,64.72,44.72,64.77ZM47.57,86q0,.19-.09.24a.79.79,0,0,0-.27.1,1.49,1.49,0,0,0,.18-.24A.19.19,0,0,1,47.57,86Zm-.18.4c.27,0,.39.11.35.33a.19.19,0,0,0-.23-.1C47.39,86.61,47.35,86.53,47.39,86.35ZM47.51,75c.07,0,.08,0,0,.13s0,.15.14.2q.06-.27.15-.3a.16.16,0,0,1,.18.07,1.48,1.48,0,0,1,.21.3c0-.18.05-.29.15-.34a.39.39,0,0,0,.2-.26.92.92,0,0,1-.56,0C47.87,74.73,47.7,74.8,47.51,75Zm.17,12.45a1.21,1.21,0,0,0,.12-.33,2.05,2.05,0,0,0-.12-.4c.08.18.17.23.27.17s.19,0,.27.16c.08,0,.09-.09,0-.13s-.07-.11,0-.2.19,0,.23,0,.08,0,.12-.07c.08.14,0,.33-.26.57S47.84,87.57,47.68,87.48Zm.18-10.92a1.61,1.61,0,0,1,.12-.23A.61.61,0,0,0,48,76c-.16,0-.26,0-.3.13.2,0,.23,0,.09.17S47.7,76.51,47.86,76.56Zm.42,10.92a.38.38,0,0,1-.36.2C48,87.55,48.08,87.48,48.28,87.48ZM48.1,66.3a2.23,2.23,0,0,1,0-.33c0-.14,0-.2-.09-.2a.38.38,0,0,0-.09.33C48,66.23,48,66.3,48.1,66.3Zm0,19.39c-.12.22-.1.32.06.29S48.3,85.86,48.1,85.69Zm.53-8.53a.42.42,0,0,1,.33.1,1,1,0,0,0,.2.16c0,.09-.08.09-.26,0S48.63,77.25,48.63,77.16Zm.77,1.4c0-.14,0-.18-.21-.14s-.18.09,0,.14a.53.53,0,0,1,.24.06Q49.52,78.69,49.4,78.56Zm.06-3.93c0-.14.13-.17.27-.1s.17.16.09.3Zm.48.2c.07,0,.1,0,.08.2s-.08.22-.2.13V75ZM49.82,76c.08-.14.14-.19.2-.17s.09.08.09.17,0,.14-.06.16S49.94,76.16,49.82,76Zm.53-2.2c0,.18,0,.26.12.26q-.12.27-.33,0C50,73.86,50.07,73.78,50.35,73.83Zm.35-7.13a.38.38,0,0,1,.21-.2.22.22,0,0,0,.15-.2c-.12,0-.13-.21,0-.5s.09-.5,0-.63a1.82,1.82,0,0,0-.21.76A7.13,7.13,0,0,1,50.7,66.7Zm.18-2c.12,0,.19,0,.21-.13a1.43,1.43,0,0,1,.09-.27c-.16-.09-.23,0-.21.1S51,64.66,50.88,64.7Zm4.21.87a.54.54,0,0,0-.15-.5c-.14-.16-.25-.19-.33-.1a.65.65,0,0,1,.24.33A.41.41,0,0,0,55.09,65.57Zm1.24,18.32c-.16-.14-.14-.2.06-.2S56.57,83.75,56.33,83.89Zm0,0h.18c0,.13,0,.2-.24.2,0-.09,0-.14,0-.14S56.33,83.93,56.33,83.89ZM57,82.75q-.12.34,0,.3t.15.24c-.2-.09-.29,0-.29.2-.08-.18-.26-.25-.54-.2.08-.18.14-.24.18-.17s.14.08.3,0c-.12-.17-.16-.26-.12-.26A1.51,1.51,0,0,0,57,82.75Zm.18-.26a.45.45,0,0,1-.41.2q-.12-.27.09-.24A1.45,1.45,0,0,0,57.22,82.49Zm1.24-2.93s-.05,0,0,.1,0,.14.05.23a.33.33,0,0,1,0,.2s-.08,0-.2-.07c-.08.31,0,.42.29.34-.12.13-.12.2,0,.2,0,.08-.08.1-.12,0s-.09-.08-.17,0,0,.24.09.2.16,0,.08.2l-.17-.1-.18-.1c0,.13.06.2.18.2a.27.27,0,0,1-.06.19.18.18,0,0,0,0,.2c-.08,0-.12-.07-.12-.23s-.06-.21-.18-.16a.38.38,0,0,0-.09.13.51.51,0,0,1-.09.13c-.08.13-.08.09,0-.13a3.81,3.81,0,0,1,.15-.47.38.38,0,0,1-.29.14.56.56,0,0,1,0,.53,1,1,0,0,1-.39.4s0,.08.12.1.12,0,.12-.1.05.14-.09.3l-.09.1c.08-.09.07,0,0,.2s-.23.22-.38,0a.54.54,0,0,0,.11-.44c0-.11,0-.21.24-.29a.83.83,0,0,1-.09-.7,3.66,3.66,0,0,1,.27-.9c.28,0,.4-.14.38-.27s.09-.24.33-.33a.59.59,0,0,1,.06-.57,1.21,1.21,0,0,0,.18-.63c.19,0,.29,0,.29.06s.08.09.24,0c-.08.09-.1.15-.06.17s.06.1.06.23.12-.06.12-.2c.2.18.26.34.18.47a1.37,1.37,0,0,0-.12.67c-.08.08-.11,0-.09-.27s0-.42-.09-.47a.29.29,0,0,0-.09.37,1.14,1.14,0,0,1,.09.37q-.24-.27-.21,0T58.46,79.56Zm-1.59-2.4c.23-.09.31-.17.23-.24S56.94,76.94,56.87,77.16Zm.82,8.53c.16,0,.24.19.24.46A.39.39,0,0,1,57.69,85.69Zm1-6.47c0-.17-.06-.26-.18-.26C58.46,79.13,58.52,79.22,58.64,79.22Zm1.42-2.66c0,.09-.08.11-.23.06s-.16-.11,0-.2a.33.33,0,0,0-.21.34q0,.19-.27.06c0,.32.07.51.09.6a1.36,1.36,0,0,1-.09.54c-.08-.09-.17-.08-.26,0a.58.58,0,0,1-.45.17,2.91,2.91,0,0,0,.15-.6c0-.18.07-.51.15-1a1,1,0,0,1,.3-.23c.11-.07.13-.19,0-.37a.54.54,0,0,1,.6.2c.08,0,.09-.16.06-.33s0-.25.23-.2c-.08.17-.09.26,0,.26a.31.31,0,0,0,.21-.13q.12.13-.15.27C60,76.11,60,76.29,60.06,76.56ZM58.94,80c0,.09-.06.14-.18.14s.06.06.18.06a.46.46,0,0,1-.15.2c-.06,0-.07.16,0,.34a.91.91,0,0,1-.12-.47Q58.64,80,58.94,80Zm1.6-8.13c.16,0,.25,0,.29.07a.19.19,0,0,0,.18.13.21.21,0,0,1-.32.1A.23.23,0,0,1,60.54,71.89Z"/><path class="cls-2" d="M80.74,23.26a.63.63,0,0,0,.15-.23c0-.07.08-.08.2,0q.12.33.06.36a.82.82,0,0,0-.18.24c.16,0,.25,0,.27-.07s.11-.09.27,0c0,.27,0,.44.2.53s.19.25,0,.47q.06.2.21,0c.1-.11.19-.07.27.1a.92.92,0,0,0,.09.64c.09.15.18.32.26.49-.15.09-.27,0-.35-.33A2.6,2.6,0,0,0,82,24.8a.6.6,0,0,0,0,.5l.21.69.24.84a2.74,2.74,0,0,1,0,1,.89.89,0,0,1-.26.54.55.55,0,0,0-.09.6,2.19,2.19,0,0,0-.39.26,1.78,1.78,0,0,1-.38.27,1.11,1.11,0,0,1,.12.4,1.62,1.62,0,0,1-.89.5,4.09,4.09,0,0,0-1.07.36,8,8,0,0,0-.86.57,1.2,1.2,0,0,1-1,.17l-.33-.24A1,1,0,0,1,77,31a1.11,1.11,0,0,1-.63.07,1.77,1.77,0,0,1-.53-.27c-.18-.13-.36-.28-.53-.43a2.22,2.22,0,0,0-.57-.37c0-.18,0-.26.12-.26a5.14,5.14,0,0,0-.65-.74,1.78,1.78,0,0,1-.47-1.06.71.71,0,0,1,.06-.5.79.79,0,0,0,.06-.5,3.5,3.5,0,0,0-.33-.84,2.19,2.19,0,0,1-.27-.83,3.58,3.58,0,0,1,.33-1.66,4.21,4.21,0,0,1,.86-1.4,4.09,4.09,0,0,1,1.36-.7,4.14,4.14,0,0,1,1.9-.17,4.7,4.7,0,0,1,.85.33,1.92,1.92,0,0,0,.92.2c0,.23.14.35.3.37s.33.06.53.1c-.16.22-.14.38.06.47s.18,0-.06-.2a.41.41,0,0,0,.27.06Q80.8,22.66,80.74,23.26Zm3.14,25.58a2.75,2.75,0,0,0-.12.5c0,.07-.14.13-.42.17a.35.35,0,0,0,.12.17.37.37,0,0,1,.12.16.29.29,0,0,0,.15-.16c0-.07.07-.08.15,0a.5.5,0,0,0,.26.37c.14.07.09.14-.14.23h.38a1.67,1.67,0,0,1,.56.14,10.71,10.71,0,0,1-.12,1.13,2.28,2.28,0,0,0,.18,1.4,1,1,0,0,1,.12.23v.17a.27.27,0,0,0,.21.16c.1,0,0,.06-.21.1a.87.87,0,0,1,.21.5l.06.6a4.85,4.85,0,0,0,.09.57.39.39,0,0,0,.35.33,12.12,12.12,0,0,1,.18,2.8,17.14,17.14,0,0,0,.12,2.93,2.29,2.29,0,0,0,.21.47,1.05,1.05,0,0,1,.14.4,4.19,4.19,0,0,1-.06,1.2,4.16,4.16,0,0,0-.06,1.2c0,.09.08.13.24.13a9,9,0,0,0,.06,1.87,3.21,3.21,0,0,1-.18,1.59c0,.09.09.12.15.07a.23.23,0,0,0,.09-.2,6.28,6.28,0,0,1-.12,1.17,4.44,4.44,0,0,1-.35,1.1c0,.09.09.13.14.13s.09,0,.09.13c-.08.36-.16.65-.23.87a6,6,0,0,1-.27.63q-.15.3-.3.63a2.79,2.79,0,0,0-.2.87q-.3.07-.3,0s0-.06.09-.13a.67.67,0,0,0,.12-.17s0-.06-.15-.06-.27.06-.45.33-.36.31-.56.13a.43.43,0,0,0-.23.4,2.12,2.12,0,0,0-1.13.24,1,1,0,0,1-1.13-.1.36.36,0,0,1-.56.1.87.87,0,0,1-.32-.77,1.62,1.62,0,0,1,.53,0,1.65,1.65,0,0,1,.47.13,3.44,3.44,0,0,0,.54.17,2.1,2.1,0,0,0,.71,0c0-.22-.15-.34-.33-.34h-.56c.12-.17.09-.3-.09-.36a.76.76,0,0,1-.39-.3c-.08,0-.11.06-.11.2a.48.48,0,0,1-.12.33,1,1,0,0,0-.77-.3q-.42,0-.54-.63a.2.2,0,0,0-.11.2.56.56,0,0,0,0,.23.48.48,0,0,1,0,.17s-.11.06-.27.06l.41.47a1.24,1.24,0,0,1,.24.67l-.74-.44a2.35,2.35,0,0,1-.65-.56,1.3,1.3,0,0,1-.3-.73,1.72,1.72,0,0,1,.27-.94,1,1,0,0,1,.56.3.46.46,0,0,0,.56.1c0-.09-.19-.13-.47-.13a2.09,2.09,0,0,0-.27-1,.8.8,0,0,1-.09-.7c-.15,0-.24,0-.26.1s-.07.17-.15.17a.53.53,0,0,0,.09-.53c-.06-.23-.13-.47-.21-.74a5.93,5.93,0,0,1-.18-.76.74.74,0,0,1,.18-.64c0-.22-.15-.33-.32-.33s-.23-.15-.15-.46c.16.17.24.19.26.06s.13-.17.33-.13c-.08-.18-.15-.35-.21-.5s-.19-.21-.38-.17c0-.22,0-.35-.12-.4.12-.17.35-.24.71-.2-.12-.17-.24-.24-.36-.2a.33.33,0,0,1-.35-.06c.08-.23.16-.34.24-.34s.11-.11.11-.33a3.16,3.16,0,0,0-.35-.27,4.11,4.11,0,0,0,0-1.4c-.08-.44-.16-.89-.24-1.36a8.27,8.27,0,0,1-.12-1.4,3.65,3.65,0,0,1,.36-1.5.71.71,0,0,1-.06-.47.69.69,0,0,0-.06-.46.82.82,0,0,1,.36-.13q-.24-.08-.21-.24a1.1,1.1,0,0,1,.12-.33,1.17,1.17,0,0,0,.12-.3c0-.09,0-.13-.15-.13a.37.37,0,0,1,.35-.27,3.49,3.49,0,0,1-.2-.57.33.33,0,0,1,.2-.43,1.33,1.33,0,0,0-.35-.27q.06-.47.09-.63a1.39,1.39,0,0,1,.26-.5.85.85,0,0,1-.44-.57,1.24,1.24,0,0,1,.12-.63c.1-.22.19-.42.29-.6a1,1,0,0,0,.15-.46c.08-.09.15-.13.21-.1a.54.54,0,0,1,.18.1.93.93,0,0,0,.2.1.37.37,0,0,0,.3-.1c0-.18.08-.31.36-.4a.57.57,0,0,0,.41-.6A1.94,1.94,0,0,0,82,50.44a1.87,1.87,0,0,1,1.39-.33.3.3,0,0,0-.2-.23,1.08,1.08,0,0,1-.27-.1,1.52,1.52,0,0,1,.47-.54c0-.08-.19-.13-.47-.13A2.23,2.23,0,0,1,83.08,48a5.47,5.47,0,0,0,.38-.8c.12-.09.17,0,.15.17s0,.32.09.36a.17.17,0,0,0,.12-.06.21.21,0,0,1,.18-.07.62.62,0,0,1,.32.83,1.15,1.15,0,0,0-.09.83q-.12.34-.18,0C84,49,84,48.84,83.88,48.84Zm-4.74-.26a1.2,1.2,0,0,1,0-1.1,3.15,3.15,0,0,0,.44-.9,1.21,1.21,0,0,1,1-.1,5.06,5.06,0,0,1,.86.5c.16,0,.17-.07,0-.2s-.09-.16.15-.07a1,1,0,0,0,.14.5,1.27,1.27,0,0,0,.33.24,1.69,1.69,0,0,1-1.21,1.19A2.62,2.62,0,0,1,79.14,48.58Zm1.06-6.66a.68.68,0,0,0,.51.06.59.59,0,0,1,.5.14.36.36,0,0,1-.5.23A.69.69,0,0,1,80.2,41.92Zm2.25-1.07a3.59,3.59,0,0,1-.85-.5,2,2,0,0,0-1-.37.79.79,0,0,1,.44-.13,1.2,1.2,0,0,1,.57.17,4.1,4.1,0,0,1,.53.36A.8.8,0,0,1,82.45,40.85Zm-.71,0a.21.21,0,0,1,.18.07.24.24,0,0,0,.18.06c0,.32-.08.49-.24.54a4.06,4.06,0,0,1,.21,2.3c-.14.91-.29,1.65-.44,2.23-.08-.27-.18-.72-.3-1.37a1.5,1.5,0,0,1,.3-1.43.67.67,0,0,1-.18-.47,2,2,0,0,1,.09-.56c.06-.2.12-.41.17-.64A1.76,1.76,0,0,0,81.74,40.85Zm1,8.53a.55.55,0,0,1-.06.33s0,.09.18.13c0,.14-.09.18-.15.14a.53.53,0,0,1-.15-.2.5.5,0,0,1,0-.3C82.56,49.37,82.63,49.33,82.75,49.38Zm.36-6.86h.23v.53h-.23Zm.12-1c.15,0,.22.1.2.3a1.71,1.71,0,0,0,0,.56C83.3,42.29,83.23,42,83.23,41.52Zm2.13,31c0-.09,0-.15.18-.2s.13-.09-.06-.13c0,0-.07.09-.21.13S85.16,72.47,85.36,72.56Z"/><path class="cls-2" d="M108.28,27.93q.06.2.15,0t.21,0c0,.4-.08.65-.36.76a.48.48,0,0,0-.29.64h-.3a.33.33,0,0,0-.06.23.44.44,0,0,1-.12.3.92.92,0,0,0,.3.46q.18.13.06.6c0,.09.07.13.09.1s0,0,.08,0a1.35,1.35,0,0,0,0,.93,2.27,2.27,0,0,1,.18.93,3.6,3.6,0,0,1-.2,1.17,1.61,1.61,0,0,0,.08,1.23,1.47,1.47,0,0,0-.2.67l-.06.8a4.64,4.64,0,0,1-.12.76.68.68,0,0,1-.39.5,3,3,0,0,1,.33,1.43,5.12,5.12,0,0,0,.15,1.44,3,3,0,0,0,.41.4q.06.74.12,1.53a14.21,14.21,0,0,0,.18,1.46q.12.6.24,1.44a3.52,3.52,0,0,1,0,1.23h-.18a2.17,2.17,0,0,0-.12.47c0,.22-.12.29-.24.2,0,.22.07.27.21.16s.19-.07.15.1a.19.19,0,0,0,.12-.16.6.6,0,0,1,.06-.24,2.93,2.93,0,0,1,.29.64,1.19,1.19,0,0,0,.36.56c.19-.13.35-.12.47,0a1.82,1.82,0,0,0,.36.37c.07-.09.19-.1.35,0s.34-.06.54-.37c.19,0,.41.09.65.13a.61.61,0,0,1,.47.47.34.34,0,0,1,.24-.07c0,.18,0,.3.06.37l.23.23c.08,0,.16-.06.24-.2s0-.35-.18-.4-.18-.15-.06-.33a.5.5,0,0,0,.27.17.29.29,0,0,1,.21.23.25.25,0,0,1,.18-.07c0-.22,0-.36-.09-.43a.55.55,0,0,1-.21-.3c0-.09,0-.13.12-.13s.1-.07.06-.2a1.9,1.9,0,0,0,.53.37,1.55,1.55,0,0,1,.53.43,8.93,8.93,0,0,0-.74-.87c-.25-.26-.52-.53-.8-.8.16-.26.08-.4-.23-.4-.08,0-.1.05-.06.14a.3.3,0,0,1,0,.26c-.2,0-.31,0-.33-.1s-.11,0-.27.1a1.92,1.92,0,0,0-.14-.36.78.78,0,0,1-.09-.37q-.42-.13-.42.27a.58.58,0,0,0-.32-.14.6.6,0,0,1-.27-.06,1.28,1.28,0,0,1-.06-.54c-.12.09-.21.13-.27.1a.29.29,0,0,1-.14-.13.88.88,0,0,1-.09-.2q0-.1-.09,0c-.08,0-.11,0-.09-.2s.07-.27.15-.27a1.48,1.48,0,0,1,0-1.33,1.92,1.92,0,0,1,.8-.93c.08-.27.15-.51.23-.74a.77.77,0,0,1,.54-.46.68.68,0,0,1,.12-.54,2.45,2.45,0,0,1,.38-.46l.42-.4a.67.67,0,0,0,.2-.47,2.56,2.56,0,0,0,.27-.23,1.48,1.48,0,0,0,.21-.44,1.35,1.35,0,0,0,.77-1c.08,0,.12,0,.14,0s.07-.07.15-.07a2.22,2.22,0,0,1,.71-1.27,2.73,2.73,0,0,1,.42-1,7.42,7.42,0,0,1,.65-.83c.24-.27.46-.54.68-.8a2.78,2.78,0,0,0,.5-.93,2.2,2.2,0,0,0,.63-.8,1.21,1.21,0,0,1,.68-.67c.16-.36.33-.55.53-.6a3.61,3.61,0,0,0,.53-.77,4.31,4.31,0,0,1,.54-.76l.8-.93a6.35,6.35,0,0,0,.74-1.14,5.74,5.74,0,0,0,.47-1.16,4.42,4.42,0,0,1,.53-1.17,2.79,2.79,0,0,1,.66-.73,9.47,9.47,0,0,0,.77-.73,11.06,11.06,0,0,0,.86-1,12.32,12.32,0,0,1,1-1.1,9.87,9.87,0,0,1,1.07-.93,2.74,2.74,0,0,1,1.12-.53,2.29,2.29,0,0,1,1.84.43,5.81,5.81,0,0,1,1.13,1.36,3.41,3.41,0,0,1,.11,1.5c-.08.47-.15,1-.23,1.7a9.32,9.32,0,0,1-.33,1.6,1.8,1.8,0,0,1-.68,1,9.17,9.17,0,0,1-.41.9,1.15,1.15,0,0,1-.71.57,12.86,12.86,0,0,0-.89,1.09c-.28.38-.58.77-.89,1.17a.56.56,0,0,0-.56.23q-.27.3-.75,0a3.78,3.78,0,0,0-.5.57,1.48,1.48,0,0,1-.44.43q-.06.19.09.27t0,.33a3,3,0,0,1-.66,1.4c-.31.35-.63.69-.94,1q-.12.33-.21.63a.7.7,0,0,1-.33.43,1.86,1.86,0,0,1-.41.87,1.87,1.87,0,0,0-.42.87c-.08,0-.1-.09-.06-.14a.19.19,0,0,0,.06-.13.58.58,0,0,0-.35.37,1.51,1.51,0,0,1-.36.56l-.26.3q-.15.16-.27,0c-.08,0-.1,0-.06.14a.14.14,0,0,1-.06.2.58.58,0,0,1-.59-.07c-.2-.13-.34-.09-.42.13a.65.65,0,0,1-.29-.06.56.56,0,0,0-.3-.07.8.8,0,0,0,.39.4,1.12,1.12,0,0,1,.44.47.65.65,0,0,1-.44,0l-.57-.16c-.08.09,0,.17.09.26a.28.28,0,0,1,.15.34.21.21,0,0,0-.32,0q-.15.16-.27,0a.61.61,0,0,0,.15.5,1.14,1.14,0,0,1,.2.63c.12-.13.2-.2.24-.2q.12.27-.06.27c-.12,0-.18.06-.18.2-.15-.23-.29-.18-.41.13a1.41,1.41,0,0,1-.36.6,1.31,1.31,0,0,0,0,.56.63.63,0,0,1-.11.5.25.25,0,0,1-.21.07.25.25,0,0,0-.21.07.38.38,0,0,0-.09.33.36.36,0,0,1,0,.27s-.1,0-.18-.07,0,0,.06.27h-.29a4.77,4.77,0,0,1-.3,1.8c-.08-.09-.13-.1-.15,0s-.09.08-.2,0a6.54,6.54,0,0,1-.33,1.2,1.11,1.11,0,0,1-.92.66.21.21,0,0,1-.12-.2.45.45,0,0,0-.11-.27.66.66,0,0,1-.54.34.15.15,0,0,0,.12.16.3.3,0,0,1,.18.17c-.2.36-.39.46-.56.3a2,2,0,0,0-.74-.37c0,.18.07.28.23.3s.2.15.12.37a.18.18,0,0,0-.27,0c-.1.06-.16,0-.2-.24-.08,0-.12.08-.12.1s0,.06-.12.1a4.73,4.73,0,0,0,.41.74.92.92,0,0,1,.12.8.55.55,0,0,0,.09-.14s.07-.06.15-.06q-.12.33,0,.3a.2.2,0,0,1,.21,0c0,.13,0,.19,0,.17s-.07,0-.15,0,.07.17.21.24.2.07.2,0,.11.14,0,.17-.16.1-.08.23a.35.35,0,0,1,.17.1c.08.07.12.05.12,0,.16.08.2.2.12.33s-.08.22,0,.27.08.12.12,0,.12-.19.24-.1c0,.18,0,.29,0,.34a.27.27,0,0,1,.12.26.21.21,0,0,0-.14-.07c-.06,0-.09,0-.09-.13l-.15.2a.76.76,0,0,1-.24.23.87.87,0,0,1-.27.14c-.08,0-.13,0-.17-.1a2,2,0,0,0-.15.43c0,.11,0,.23-.09.37q-.36-.13-.21-.3a.29.29,0,0,0,0-.37.49.49,0,0,1-.38.37,2.71,2.71,0,0,0-.51.1c0-.14,0-.21,0-.24s.09-.07.09-.16a17.94,17.94,0,0,1-.38-2,4.06,4.06,0,0,0-.74-1.9c-.16.09-.18.24-.06.46a2.49,2.49,0,0,0,.29.47,2,2,0,0,1,0,.8.58.58,0,0,0,0,.4s0,0,0,0a.31.31,0,0,0,0-.13.58.58,0,0,0,.09.33q.09.13-.15.27a1.7,1.7,0,0,1,.06,1,2.41,2.41,0,0,0,0,1.07h-.29a.28.28,0,0,0,.06.2.3.3,0,0,1,.06.2.28.28,0,0,1-.15.33c-.14.09-.13.23,0,.4a6.23,6.23,0,0,1-.65.84,1.22,1.22,0,0,0-.3,1,.77.77,0,0,1-.33.2.38.38,0,0,0-.26.33c-.08,0-.1-.09-.06-.13a.22.22,0,0,0,.06-.14,1.06,1.06,0,0,0-.48.74,1,1,0,0,1-.77-.14.9.9,0,0,0-.71-.13c0,.13,0,.21,0,.23s.07.1,0,.24a6.79,6.79,0,0,1,1,1.23c.3.47.58.94.86,1.43,0,.09,0,.15-.06.17a.16.16,0,0,0-.12.17.83.83,0,0,1,.18.4.6.6,0,0,1-.06.46c0,.13,0,.18.12.13a.49.49,0,0,1,.23-.06.49.49,0,0,0,.24.66,1.39,1.39,0,0,1-.24.4.56.56,0,0,0-.06.47.88.88,0,0,0-.44.23l-.3.34a1.83,1.83,0,0,1-.32.3.45.45,0,0,1-.48,0c.12-.09.12-.25,0-.47s0-.31.24-.27c0-.13,0-.21-.09-.23s0-.1,0-.23c-.2.31-.36.42-.5.33s-.29,0-.45.27a.61.61,0,0,1,.15.1,1,1,0,0,1,0,.36q-.12,0-.09-.06a.13.13,0,0,0,0-.14,1.15,1.15,0,0,0-.53.4.27.27,0,0,0-.33-.13c-.13,0-.2.18-.2.4a1.33,1.33,0,0,0-1.19.8c0,.22.08.47.12.73a.43.43,0,0,1-.29.53.7.7,0,0,0,.23.2,1,1,0,0,1-.29.47c0,.13.12.16.26.07s.17,0,.09.33a.61.61,0,0,1,.45-.1c.17,0,.28-.08.32-.3a1.24,1.24,0,0,1,.53.83,1.89,1.89,0,0,0,.42.9c.16-.09.18-.16.06-.23a.39.39,0,0,1-.18-.37q.36.14.27,0a.29.29,0,0,1,0-.33.37.37,0,0,0,.47.07c0,.09,0,.14,0,.16a.12.12,0,0,0-.06.1q.06.14.21-.06t.27,0c-.08.22-.14.41-.18.56a1.78,1.78,0,0,0-.06.44q.12.06.12,0s0-.07.12-.07,0-.06,0-.17,0-.16,0-.16.16,0,.26.16.11.35,0,.44a.51.51,0,0,0,.27-.27,1.33,1.33,0,0,1,.21-.33q-.12-.21-.15,0c0,.16-.09.21-.21.17a1.31,1.31,0,0,1-.06-.74c0-.35-.08-.55-.35-.6,0,.09,0,.15,0,.17a.27.27,0,0,1,.18.17.64.64,0,0,1-.38-.17l-.45-.37a5,5,0,0,0-.44-.33.41.41,0,0,0-.45,0,1,1,0,0,0-.26-.3.81.81,0,0,1-.27-.37q.12.07.12,0c0-.07,0-.1.12-.1s.1,0,.18.13.06-.11.06-.33a1.08,1.08,0,0,0,.8,0,.72.72,0,0,1,.62,0,.8.8,0,0,1,.35.14s.16,0,.36,0a.51.51,0,0,1,.26-.17q.15,0,.09-.3a3.15,3.15,0,0,0,.86-.7c.26-.29.51-.59.74-.9a1.47,1.47,0,0,0,.18-.23,1.47,1.47,0,0,1,.18-.23,1.52,1.52,0,0,1,.35-.27,1.4,1.4,0,0,0,.36-.27l.21-.23a.67.67,0,0,1,.32-.17c.12,0,.18-.17.18-.4.36,0,.55,0,.59-.2a.81.81,0,0,0,.3.1.22.22,0,0,1,.18.24c.15,0,.21-.1.17-.17s0-.17.06-.3.12,0,.12.1,0,.1.12.1.09-.1,0-.17-.05-.12,0-.16.13,0,.15,0,.07.06.15.06,0-.21,0-.23.06-.1.14-.23a.81.81,0,0,0,.45.1.25.25,0,0,1,.26.1,1,1,0,0,1,.21-.1c.06,0,.07-.1,0-.23a1.21,1.21,0,0,1,.33,0c.06,0,.11-.06.15-.23,0,0,0,.06,0,.2a.85.85,0,0,1,.24-.2A.46.46,0,0,0,117,62c.24.09.37.18.41.27s.12-.09.12-.27a1.29,1.29,0,0,1,.33.17c.1.06.19,0,.26-.17l.89.63a1.94,1.94,0,0,1,.65,1,.25.25,0,0,1-.14.17.29.29,0,0,0-.15.17.35.35,0,0,1,.06.43.55.55,0,0,0,0,.5q-.12.06-.18,0a.19.19,0,0,0-.12-.07.34.34,0,0,1,.06.34.41.41,0,0,1-.18.26,1.69,1.69,0,0,0,.18.3.22.22,0,0,1,0,.3,1.92,1.92,0,0,1-.59-.5,2.77,2.77,0,0,0-.53-.5c-.08,0-.09,0,0,.14a.27.27,0,0,1,0,.26c.07,0,.11,0,.11-.06a.56.56,0,0,0,.24.4,3.43,3.43,0,0,0,.48.33.67.67,0,0,1-.18.37c-.08.06,0,.19.12.36,0,.09-.09.1-.15,0a.21.21,0,0,1,0-.24l-.15.17s-.09,0-.21-.1c.08.36.2.46.36.33,0,.22.1.36.18.4s.09.18.06.4q-.3.14-.3.33a1.16,1.16,0,0,1-.12.47.38.38,0,0,1,.18.07c.08,0,.08.13,0,.26s.1,0,.18-.13a.18.18,0,0,1,0,.27.24.24,0,0,1-.33,0c0,.18,0,.24.15.2s.21,0,.21.13c-.16.36-.32.72-.48,1.1a1.68,1.68,0,0,0-.06,1.17c-.2-.09-.27-.06-.23.09s0,.22-.18.17a.71.71,0,0,1-.18.37,1.75,1.75,0,0,1-.36.36c0,.54-.15.87-.47,1,0,.14,0,.2.12.2a2,2,0,0,1-.24.34.53.53,0,0,1-.41.13,3.14,3.14,0,0,1-.48.93c-.19.27-.39.56-.59.87,0,0,.06.07.18.07-.08.13-.16.18-.24.16s-.08.1,0,.37a2.34,2.34,0,0,0-.59,1,6.26,6.26,0,0,1-.47,1.13q-.12-.14-.21,0t-.09,0a3.22,3.22,0,0,1-2.37,1.47,9.7,9.7,0,0,1-.89-.57,9.7,9.7,0,0,0-.89-.57c0-.44-.12-.57-.35-.4a.51.51,0,0,0,0-.66.83.83,0,0,1-.71-.07,1,1,0,0,1-.54-.73.18.18,0,0,0-.17.1.21.21,0,0,1-.18.1,1.64,1.64,0,0,1-.18-.47.4.4,0,0,0-.3-.33.49.49,0,0,0,.06-.53.18.18,0,0,0-.06.13.24.24,0,0,1,0,.13.3.3,0,0,1-.18-.36l.12-.5a1.2,1.2,0,0,1-.21-.44.44.44,0,0,1,0-.43.23.23,0,0,0-.18.23c0,.11-.06.15-.18.1s-.16-.22,0-.4a.21.21,0,0,0-.2,0q-.15,0,0-.3-.24.27-.3,0t-.36,0q.12-.19,0-.27a.22.22,0,0,1-.11-.2.22.22,0,0,0,0,.3.35.35,0,0,1,.06.3c-.08-.17-.17-.28-.27-.3s-.19-.12-.27-.3A.7.7,0,0,0,105,74a.22.22,0,0,1-.17.06.3.3,0,0,0,0-.3.32.32,0,0,1-.09-.23.25.25,0,0,1-.39,0c-.14-.11-.22-.07-.26.1a2.81,2.81,0,0,0-.3-.26.56.56,0,0,1-.18-.47c-.08.22-.15.27-.2.13a.37.37,0,0,1,.08-.4c-.15,0-.23,0-.23-.06-.08-.31-.19-.48-.33-.5s-.25-.19-.32-.5a.11.11,0,0,1,.08,0s.07,0,.15,0c.08-.18,0-.24-.09-.17s-.2,0-.2-.1.13-.11.06-.2a3.44,3.44,0,0,0-.27-.27,2.46,2.46,0,0,1-.3-.33.33.33,0,0,1,0-.4.2.2,0,0,0-.11.2c0,.09-.06.11-.18.07q-.06-.54-.33-.54t-.21-.33c-.15-.09-.23-.07-.23.07s-.06.17-.18.13,0-.28.15-.3.13-.1.09-.23-.12,0-.12.26a.88.88,0,0,1-.18-.4q-.06-.25.06-.33A4.64,4.64,0,0,0,100,68a1.07,1.07,0,0,1-.21-1.1c-.08-.13-.16-.2-.24-.2a2.43,2.43,0,0,0-.29-1.27,1.58,1.58,0,0,1-.06-1.4S99.14,64,99,64a2.61,2.61,0,0,0-.24-1.2c.08-1,.13-2.08.15-3.17s.09-2.23.21-3.43a1.56,1.56,0,0,0,0-.53,4.71,4.71,0,0,1,0-.53l.18-.2c.08-.76.14-1.52.18-2.3s.09-1.48.17-2.1a3,3,0,0,0,.06-1,8.77,8.77,0,0,1-.06-1,7.82,7.82,0,0,0,0-1.37,7.82,7.82,0,0,1,0-1.37.31.31,0,0,1,.12-.16.12.12,0,0,0,.06-.1.93.93,0,0,0,0-.47,1.19,1.19,0,0,1,0-.53c0-.14.08-.29.12-.47s.08-.38.12-.6,0-.44,0-.66a2.49,2.49,0,0,1,0-.67q.06-.4.15-.93a1.62,1.62,0,0,0-.15-1c.19-.54.35-1,.47-1.5a13.4,13.4,0,0,0,.3-1.77,3.45,3.45,0,0,1,.29-1,4.58,4.58,0,0,0,.36-1.1,5.1,5.1,0,0,0,.24-1.2,9.62,9.62,0,0,1,.17-1.2,4,4,0,0,1,.15-.4,2.48,2.48,0,0,0,.15-.46c.08-.36.17-.71.27-1.07s.18-.71.26-1.06a1.64,1.64,0,0,0,0-.54,1.14,1.14,0,0,1,0-.46,2.37,2.37,0,0,1,.15-.47.82.82,0,0,0,.09-.33,5.76,5.76,0,0,0-.06-1.44,1.56,1.56,0,0,1,.36-1.29,4.4,4.4,0,0,1,.38-1.7,4.49,4.49,0,0,0,.39-1.64,8.06,8.06,0,0,0,.85-1.93A2.47,2.47,0,0,1,106.15,18a2.67,2.67,0,0,0,.47.07h.6a.83.83,0,0,0,.44.5l.62.3c0,.09,0,.14-.06.16s0,.08,0,.17.17.16.15.2a1.2,1.2,0,0,0,.09.47.27.27,0,0,0,.06.19c0,.05,0,.07.06.07a.68.68,0,0,1,0,.4.46.46,0,0,0,0,.33l.15.17c.06.07,0,.15-.09.23a1.29,1.29,0,0,1,.29.6c0,.23.08.49.12.8-.12,0-.18,0-.18.1s-.08.13-.23,0a1.47,1.47,0,0,1,.23,1.26,4.6,4.6,0,0,0-.06,1.6c-.11.09-.15.17-.11.23s0,.1-.12.1q.06.35.12.57a1.85,1.85,0,0,1-.06.77c-.16.09-.24.18-.24.26A.73.73,0,0,1,108.28,27.93Zm-9,42.5s.06.09.06.27l-.18-.1S99.16,70.52,99.28,70.43Zm1.12-2.33a1.14,1.14,0,0,1-.2-.4,1.14,1.14,0,0,0-.21-.4.88.88,0,0,0,.12.63C100.23,68.13,100.32,68.19,100.4,68.1Zm-.06.6h.18v.13h-.18Zm.48,1.46h.35c0,.09-.19.18-.47.27A.41.41,0,0,0,100.82,70.16Zm1,1c0,.09,0,.14-.18.14s-.2-.07-.12-.2.13-.1.15,0A.14.14,0,0,0,101.77,71.16ZM103,72c-.08,0-.11,0-.09-.13s0-.13,0-.13a.23.23,0,0,0,0,.29C102.92,72.11,103,72.09,103,72Zm1.54-52.76c.08,0,.1,0,.06.13a.58.58,0,0,0-.06.2c-.12,0-.14-.09-.06-.13A.14.14,0,0,0,104.55,19.2Zm.89,47.23a.17.17,0,0,1,.12-.06c-.08-.09-.14-.14-.18-.14S105.4,66.43,105.44,66.43Zm.41-.4a.14.14,0,0,0-.2.07c-.06.09-.05.16,0,.2s0-.13.08-.13S105.85,66.12,105.85,66Zm.36.67c.16,0,.24.12.26.23a.37.37,0,0,1-.08.3C106.27,67.19,106.21,67,106.21,66.7Zm1.24,2.06h.12c0,.14,0,.2-.24.2A.34.34,0,0,0,107.45,68.76Zm.42,2.14q-.12.33-.09.36s.06,0,.12-.06a1.46,1.46,0,0,0,.17-.24c.06-.09.07-.15,0-.2S108,70.9,107.87,70.9Zm.12-.74c.11,0,.18,0,.2,0s.07-.06.15,0a1.06,1.06,0,0,1-.12-.4c0-.09-.08-.2-.23-.33Zm1.71-25.11h.18v.13h-.18ZM111,57.11q.06-.21.12,0c0,.13.09.15.17.06v.2c0,.05-.11.07-.23.07Q111,57.11,111,57.11Zm4.2-3.34c.08,0,.1-.07.06-.23s0-.19.18-.1a3.73,3.73,0,0,0,.12,1.57,3.68,3.68,0,0,1,.12,1.56c0,.14-.1.2-.18.2s-.06.09.06.27a.66.66,0,0,1-.3.07c-.12,0-.16.08-.12.26-.15,0-.23,0-.23.07a1.32,1.32,0,0,1-.21-1.07,1.26,1.26,0,0,0-.33-1.13,1.26,1.26,0,0,1,.15-.33,2.47,2.47,0,0,1,.21-.27c0-.09-.05-.13-.15-.13s-.13-.07-.09-.2q.3.13.18,0c-.08-.09-.08-.16,0-.2a.25.25,0,0,0,.24,0c.08,0,.15-.11.23-.34a.47.47,0,0,0-.11-.16s-.06,0-.06.1c-.12-.09-.1-.15.06-.17S115.19,53.6,115.15,53.77Zm-.71-2.33s.08-.06.24-.06c0,.26-.08.4-.24.4a.14.14,0,0,1,.06-.2C114.58,51.53,114.56,51.49,114.44,51.44Zm3.38,1.2a.26.26,0,0,1-.18.27l.36.4a1.75,1.75,0,0,1,.29.53.38.38,0,0,0,.24-.3.36.36,0,0,0-.06-.36,1.19,1.19,0,0,0,.53.13.43.43,0,0,0,.42-.33c.08.35.18.55.29.59s.06-.08.06-.26a.57.57,0,0,1,.21.2.66.66,0,0,0,.21.2c0-.36,0-.63,0-.83s.21-.28.56-.24a7.47,7.47,0,0,1,.89,1.27,1.28,1.28,0,0,0,1.18.73c0,.22,0,.36.15.4a.31.31,0,0,1,.21.33h.53c0,.23.08.35.24.37s.22.14.18.37a1.29,1.29,0,0,1,1.36.56,2.49,2.49,0,0,0,1.18,1c0,.09,0,.13,0,.13s0,0,0,.13A3.16,3.16,0,0,1,128,59.77c.12,0,.19,0,.23,0s.12.08.24,0a2.08,2.08,0,0,0,.86,1.33,3,3,0,0,1,1,1.27l.56.49a1.69,1.69,0,0,1,.44.64c0,.09,0,.14,0,.16a.19.19,0,0,0-.06.17,3.81,3.81,0,0,0,.57.83c.21.25.42.5.62.77a.44.44,0,0,1-.3-.1,1.67,1.67,0,0,1-.23-.23,1.65,1.65,0,0,0,.35,1.33,11.24,11.24,0,0,0,.95,1.06,2.85,2.85,0,0,1,.59,1,5.67,5.67,0,0,0,.59,1.23,1,1,0,0,0-.08.3.71.71,0,0,1-.15.3,1.73,1.73,0,0,1-.18,1,2.89,2.89,0,0,1-.68.89,2.84,2.84,0,0,1-1,.6,1.71,1.71,0,0,1-1.18,0,2.35,2.35,0,0,1-1.25-.9,6.32,6.32,0,0,1-.83-1.43l-.62-.7a2.45,2.45,0,0,1-.5-.9h-.3a.62.62,0,0,1-.24-.4.4.4,0,0,0-.29-.33.15.15,0,0,0,0-.2c-.06,0-.07-.11,0-.2a1.19,1.19,0,0,1-.36-.53,2.13,2.13,0,0,0-.41-.67,2.12,2.12,0,0,1-.44-.5,2.6,2.6,0,0,1-.39-.7.28.28,0,0,1-.06-.3c0-.11,0-.19-.18-.23a.67.67,0,0,0-.2-.73,5,5,0,0,1-.57-.54.55.55,0,0,0-.09.14s-.07.06-.14.06a2.2,2.2,0,0,0-.69-.7,2.13,2.13,0,0,1-.68-.69,5.91,5.91,0,0,1-.71-1.24c-.2-.46-.45-.65-.77-.56a2.6,2.6,0,0,0-.44-.7,1.25,1.25,0,0,1-.21-1c-.08.05-.12.09-.12.13s0,.07-.12.07v-.4a2.23,2.23,0,0,1-.5-.47c-.14-.17-.29-.37-.44-.59s.08-.14.23-.14a2.67,2.67,0,0,0-.26-.56,3,3,0,0,1-.27-.57.76.76,0,0,0-.35.43.47.47,0,0,1-.48.3.8.8,0,0,1-.12-.43.9.9,0,0,0-.18-.5c-.07,0-.1.06-.08.17s0,.16-.09.16-.26,0-.3-.06-.14-.09-.3,0a.62.62,0,0,0,.12-.5c0-.16-.12-.24-.23-.24s-.09,0-.15,0-.07.1,0,.1l-.27-.2a1.91,1.91,0,0,0-.21-.14c-.07,0-.06-.11,0-.2a.21.21,0,0,0,.09-.26q-.12,0-.15.06s0,.07,0,.07-.14.07-.2-.07-.13-.17-.21-.13a.38.38,0,0,0-.18-.43q-.24-.16.06-.24c-.08.09-.06.16.06.2s.16.16.12.34q.18-.13.12-.24a.52.52,0,0,1,0-.36c0-.09,0-.14-.06-.14s-.06,0-.06.14-.08-.14,0-.27.16-.11.24.07a.31.31,0,0,0-.18-.3q-.18-.11,0-.3c.08,0,.11,0,.09.1s0,.1.09.1a1.29,1.29,0,0,1,0-.83c.09-.25.18-.5.26-.77.24,0,.4,0,.48.1s.21.12.41,0c.08.18,0,.24-.09.17s-.19,0-.15.17c.2,0,.27.07.21.1S117.62,52.69,117.82,52.64Zm-1.3,1.67c0,.09,0,.13,0,.13s0-.12.09-.1.09,0,.09,0-.12-.08-.12-.1S116.59,54.22,116.52,54.31ZM117.88,65a.52.52,0,0,0-.18-.5c-.16-.15-.26-.14-.3,0a.31.31,0,0,1,.24.16Q117.76,64.9,117.88,65Zm4.44-10.92a.29.29,0,0,1,.27.16c.06.12,0,.19,0,.24S122.28,54.29,122.32,54.11Zm10.49,12c.15,0,.29.12.41.37a6.57,6.57,0,0,1,.3.69.74.74,0,0,1-.42-.43C133,66.53,132.92,66.32,132.81,66.1Zm.94,1.2c-.08.13-.14.13-.17,0S133.59,67.16,133.75,67.3Zm1.43,1.2h.17v.2h-.17Z"/><path class="cls-2" d="M146.13,67c.12-.17.17-.15.15.07S146.21,67.3,146.13,67Zm41.41,1a.4.4,0,0,0-.18.47q.06.33.12.6l.18-.3a.76.76,0,0,0,0-.44.69.69,0,0,1,.38.5q.09.38.39.24.12.47,0,.6c.08.22.18.3.29.23s.24,0,.36.17v-.54c-.16,0-.27,0-.33-.2s-.12-.37-.2-.6a.38.38,0,0,1,.41.34c0,.22.2.31.47.26a.66.66,0,0,1-.08.64.63.63,0,0,0-.21.36q.06.14-.12.24c-.12.06-.16,0-.12-.1s0-.08.12-.1.1-.06.06-.1-.19-.06-.33.1a.47.47,0,0,1-.5.16.72.72,0,0,0,.09.4.51.51,0,0,1,0,.4c.08,0,.11-.13.09-.26s.07-.18.26-.14a.4.4,0,0,1,.09.34l-.06.4a.72.72,0,0,0,0,.36.28.28,0,0,0,.3.17c.08,0,.09-.11,0-.2a.2.2,0,0,1,0-.27.28.28,0,0,1,.12.27h.17a.63.63,0,0,0-.11.86,5.19,5.19,0,0,1,.47.8.62.62,0,0,1,.36-.06,3.49,3.49,0,0,1,.14.56c0,.16.13.19.33.1-.08.18-.08.29,0,.34s-.07.11-.09.06a.1.1,0,0,0-.09-.06q-.12.53.18.66a.5.5,0,0,0-.21.27c0,.09-.11.09-.26,0v.86q-.12.08-.15,0a.64.64,0,0,1,0-.2.38.38,0,0,0,0-.16s-.07-.07-.15-.07-.09.08-.15.23-.11.1-.15-.16a.57.57,0,0,0-.32.53c0,.26-.21.35-.56.26.23.23.23.41,0,.57s-.44.28-.6.37a1.09,1.09,0,0,0-.11-.6.27.27,0,0,1-.36,0,.3.3,0,0,0,.06.2.28.28,0,0,1,.06.2q-.42-.14-.45,0c0,.11-.05.26-.09.43a.65.65,0,0,0-.32,0,2.63,2.63,0,0,0-.33.17v-.4a.34.34,0,0,0-.26.33c0,.18-.15.22-.39.13.08,0,.12-.17.12-.4-.08.27-.16.3-.24.1s-.16-.3-.23-.3-.16.09-.24.27-.2.22-.36.13c0,.09,0,.14.06.14-.08.13-.13.1-.14-.1a.53.53,0,0,1,.08-.44.93.93,0,0,1-.41.3c-.16.07-.3,0-.42-.16s-.31.09-.23.4c-.59-.18-1,0-1.13.4,0,0-.06-.11-.06-.34a.7.7,0,0,1-.47.2,3.59,3.59,0,0,1-.47,0,1.69,1.69,0,0,0-.45,0c-.14,0-.27.14-.38.37a.57.57,0,0,0-.83-.07.56.56,0,0,1-.83-.07c0,.09.06.14.17.14A7.42,7.42,0,0,0,178,79a3.18,3.18,0,0,1-1.27.14c-.16,0-.21,0-.15-.1s0-.17,0-.3a.42.42,0,0,1-.3.13A.54.54,0,0,0,176,79c0-.14,0-.21.09-.24a.74.74,0,0,0,.26-.1c0-.13-.08-.17-.11-.13a.34.34,0,0,1-.24.07c.24-.27.47-.34.71-.2,0-.23,0-.29-.09-.2s-.13.09-.21,0a7,7,0,0,1-2,.26,6.51,6.51,0,0,1-1.9-.26.42.42,0,0,0-.35,0,.54.54,0,0,1-.36,0c-.08,0-.12-.1-.12-.17s0-.12-.12-.17a.18.18,0,0,0-.2,0q-.09.08-.15,0c-.08,0-.14,0-.18-.16a.42.42,0,0,0-.29-.24.16.16,0,0,0-.15.07.16.16,0,0,1-.15.07c-.2-.09-.46-.19-.77-.3a1.76,1.76,0,0,0-.89-.1c-.08,0-.12.06-.12.2a7.42,7.42,0,0,0-2.57-.2,10.71,10.71,0,0,1-2.82-.13,6.8,6.8,0,0,1-.71-.17,2.36,2.36,0,0,0-.77-.1c-.32-.05-.63-.1-1-.17a2.48,2.48,0,0,0-.94,0,1.72,1.72,0,0,1-.72-.17,1.13,1.13,0,0,0-.88,0,4.1,4.1,0,0,1-1-.73,1.91,1.91,0,0,1-.62-1,.47.47,0,0,1-.18-.16.25.25,0,0,0-.24-.1.74.74,0,0,0-.12-.44.22.22,0,0,1,0-.3c-.11,0-.17.12-.17.34a1.24,1.24,0,0,1-.54-.6c-.16-.31-.17-.51-.06-.6a3.37,3.37,0,0,1-.53-.47,1.16,1.16,0,0,1-.24-.8c-.11,0-.19,0-.23.14a.38.38,0,0,0-.21-.27.58.58,0,0,1-.27-.27c0-.09,0-.14,0-.16s0-.06,0-.1a5.28,5.28,0,0,0-1.36-1.3,4.08,4.08,0,0,1-1.3-1.44l-.92-.76a2.37,2.37,0,0,1-.68-1,.21.21,0,0,0-.24.24c0,.15-.1.19-.29.1a.85.85,0,0,0,.23.2q.12.06,0,.39a1.93,1.93,0,0,1,1,.54c.26.26.54.53.86.8a1.13,1.13,0,0,1-.56.13q-.33,0-.33.27a1.46,1.46,0,0,1-1.3-.27,4,4,0,0,0-.95-.67c-.2.09-.32.12-.36.07s-.14,0-.29,0c.19-.22.22-.36.09-.43a.72.72,0,0,1-.33-.44,1,1,0,0,0-.56.3,1.7,1.7,0,0,1-.45.37.8.8,0,0,1,.51-.83l1-.57c-.08-.13-.17-.15-.26-.06s-.19.11-.27.06a.43.43,0,0,1,.12-.36.88.88,0,0,1,.32-.17A3.75,3.75,0,0,1,148,66a.46.46,0,0,0,.29-.17.86.86,0,0,0,.33,0s.07,0,.15.17c.08-.09.1-.15.06-.17s-.06-.1-.06-.23c-.16-.09-.22-.06-.18.1s0,.19-.18.1a1.86,1.86,0,0,1,.39-.44c.18-.15.32-.12.44.1q.18-.06.18-.33t.24-.27a2.86,2.86,0,0,0,1.54.24,3.73,3.73,0,0,1,1.6.16,14.31,14.31,0,0,0,3.2.6c1.14.09,2.27.16,3.37.2a7,7,0,0,0,1.19,0,1.57,1.57,0,0,1,1.06.36,13.48,13.48,0,0,1,2.14-.1,5,5,0,0,0,2.07-.36c.16-.09.24-.16.24-.2s.06,0,.17,0a.2.2,0,0,0,.18-.14.44.44,0,0,1,.18-.2.11.11,0,0,1,.09.07.11.11,0,0,0,.09.07,4.12,4.12,0,0,0,1.45-.8,15.77,15.77,0,0,0,1.33-1.14,3.6,3.6,0,0,0,.71-.93,11,11,0,0,1,.65-1.06c.44-1.29.88-2.5,1.34-3.64a13,13,0,0,0,.8-4.16,9.81,9.81,0,0,0-.77,2,5.66,5.66,0,0,1-.89,1.9.14.14,0,0,1-.15-.13c0-.09-.09-.11-.21-.07a18.67,18.67,0,0,1,.06-2.6,15.18,15.18,0,0,1,.47-2.53.84.84,0,0,1-.35-.8V50.51c-.16,0-.26,0-.3.1s-.14.1-.29.1a8,8,0,0,1-.77-2.93c-.2.22-.27.39-.21.5s0,.28-.09.5c.08,0,.11,0,.09-.07a.11.11,0,0,1,0-.13c0,.22,0,.31-.09.26a.65.65,0,0,1-.18-.29l-.2-.5q-.12-.27-.24-.27a1.11,1.11,0,0,0-.06-.67,1,1,0,0,1-.12-.53.25.25,0,0,0,.24-.1c0-.07.14-.1.29-.1a.84.84,0,0,0,.15.3.45.45,0,0,1,.09.3c.24-.09.34-.31.3-.67a.75.75,0,0,0-.36-.66.78.78,0,0,0,.18-.77,1,1,0,0,1,0-.7s0,0,.09,0,.09,0,.09-.1a.16.16,0,0,0-.15-.17q-.15,0,.21,0c0-.22.11-.58.23-1.07a1.85,1.85,0,0,1,.6-1.06,15.47,15.47,0,0,1-.63-1.47,11.09,11.09,0,0,0-.56-1.33.2.2,0,0,0,.09-.23c0-.12,0-.17.09-.17a1.23,1.23,0,0,0-.21-.53,1,1,0,0,1-.15-.6,1.45,1.45,0,0,1-.41-.74,5.1,5.1,0,0,0-.3-.86,1.06,1.06,0,0,0-.18-.27,1,1,0,0,1-.17-.33,3.43,3.43,0,0,1,.06-1.43,4.63,4.63,0,0,0,.11-1.44,3.81,3.81,0,0,1,.69-.7,3.15,3.15,0,0,0,.68-.76,2.58,2.58,0,0,1-1.19.56,3.34,3.34,0,0,1-1.18,0c-.4-.06-.81-.14-1.25-.23a6.37,6.37,0,0,0-1.3-.13.55.55,0,0,1-.47-.24.38.38,0,0,0-.48-.1c-.08-.22-.21-.54-.41-1a1.51,1.51,0,0,1,.06-1.37,7.15,7.15,0,0,1-1,1.4,1.91,1.91,0,0,1-1.45.67l-.62.43a1.19,1.19,0,0,0-.45.63,1.44,1.44,0,0,1-.44.07,1,1,0,0,0-.39.07,2.39,2.39,0,0,0-.77.36,1,1,0,0,1-.65.24.21.21,0,0,1-.18-.1c0-.07-.08-.1-.11-.1a3,3,0,0,0-.45.16.61.61,0,0,1-.44,0c-.08,0-.09.07,0,.1s.07.07,0,.16a1.64,1.64,0,0,0-.8-.06l-.62.13a5.69,5.69,0,0,1-.69.1,2.06,2.06,0,0,1-.91-.17c-.08,0-.08-.13,0-.26-.56,0-.88-.27-1-.67s-.19-.78-.27-1.13a.2.2,0,0,0-.18-.14c0-.17,0-.26.12-.26a.24.24,0,0,0,.24-.2.38.38,0,0,0-.24-.2c-.12-.05-.16,0-.12.07a.92.92,0,0,1,.51-.74,1.4,1.4,0,0,0,.62-.86,1.52,1.52,0,0,0,.95-.54,1.28,1.28,0,0,1,.95-.46,35.73,35.73,0,0,1,2.6-3,6.57,6.57,0,0,1,3.67-1.87,16.72,16.72,0,0,1,4.18-.13,22.85,22.85,0,0,1,4,.73l1.75.54a6.06,6.06,0,0,0,1.74.26,8,8,0,0,1,2.11,1.4,4.41,4.41,0,0,1,1.21,2.47c.44,1,.88,2.15,1.33,3.39s.84,2.47,1.16,3.67a4.31,4.31,0,0,1,.12,1.46,2.58,2.58,0,0,1,.62,1.47,9.14,9.14,0,0,0,.33,1.67,3.54,3.54,0,0,0,.32.86,4.51,4.51,0,0,1,.33.8.94.94,0,0,1,.09.5.92.92,0,0,0,.09.5,3.32,3.32,0,0,0,.23.37,1.82,1.82,0,0,1,.36,1.23.6.6,0,0,0,.29.6,4,4,0,0,0,0,.5.24.24,0,0,0,.27.23,3.59,3.59,0,0,0,.53,1.6,3.47,3.47,0,0,1,.54,1.6,1.33,1.33,0,0,1,.5,1.1,2.42,2.42,0,0,0,.33,1.23c-.12-.13-.16-.08-.12.17a1.12,1.12,0,0,0,.12.43,6,6,0,0,0,.41,1,4.11,4.11,0,0,0,.53.8,1.08,1.08,0,0,0,.3,1c.28.31.51.6.71.86a2,2,0,0,0,.24,1.27,4.86,4.86,0,0,0,.77.93c0,.09,0,.14-.06.14s-.06,0-.06.13.16.31.24.27.17,0,.29.13a.37.37,0,0,0,0,.5.61.61,0,0,1,.09.63c-.28-.22-.38-.17-.33.17a3.29,3.29,0,0,0,.21.76s0,.06,0,0a.15.15,0,0,0,0-.1.22.22,0,0,1,.06-.14q.18.14.12.24c0,.06,0,.19.06.36a5.65,5.65,0,0,0,.29.67,1,1,0,0,1,.12.67.38.38,0,0,0-.17.16.25.25,0,0,1-.24.1,5.91,5.91,0,0,0,.06,1,3.93,3.93,0,0,0,.35.9c0,.09,0,.14-.06.14s-.11,0-.11.13a.91.91,0,0,1,.14,1,8,8,0,0,0-.32,1.1c.12.13.22.12.32,0s.21-.14.33,0a.34.34,0,0,0,0,.36.64.64,0,0,1,.09.3,1.33,1.33,0,0,1-.24.8c-.16.22-.1.47.18.73A.32.32,0,0,1,188,68c-.15,0-.21.07-.17.33a.26.26,0,0,0-.24-.1C187.52,68.29,187.5,68.21,187.54,68Zm-41-1.8a.72.72,0,0,0,.29.2c.12,0,.18.18.18.4A.58.58,0,0,1,146.55,66.23Zm1.36.14q-.3-.27-.24,0T147.91,66.37Zm1.07.46a.42.42,0,0,1-.3,0c-.12,0-.18,0-.18.1a.32.32,0,0,1,.3,0C148.92,67,149,67,149,66.83Zm9.24-8.06A1.06,1.06,0,0,0,158,59a.87.87,0,0,1-.18.26c.08,0,.15,0,.21.14s0,.15-.21.06a.44.44,0,0,1,.06.4c0,.09.1.1.18,0s.16-.06.24,0a2.47,2.47,0,0,0-.21.27,2.39,2.39,0,0,1-.21.26q.12,0,.21.24t.21,0a.17.17,0,0,1,.08.2c0,.09,0,.13.09.13a9.12,9.12,0,0,0-.11,1.57,5.22,5.22,0,0,1-.24,1.63,2.48,2.48,0,0,1-.77,1.17,1.78,1.78,0,0,1-1.6.16c0-.09-.06-.13-.18-.13s-.14-.09-.06-.27a.48.48,0,0,0-.47.4c-.2,0-.31-.22-.33-.53a1.13,1.13,0,0,0-.21-.67.17.17,0,0,0-.14-.06.18.18,0,0,1-.15-.07.45.45,0,0,1,.09-.2q.09-.13-.27,0c.2-.35.18-.59-.06-.7a.85.85,0,0,1-.47-.5c0-.22.05-.28.15-.17s.16.1.2,0a1.23,1.23,0,0,1,0-.73c.06-.31,0-.47-.14-.47s-.06-.15.05-.33.08-.27-.11-.27c.35,0,.63.16.83.6a2.45,2.45,0,0,0,.71,1A8.12,8.12,0,0,0,153.54,60c-.67-.67-1.33-1.38-2-2.14a.28.28,0,0,1,0-.16.29.29,0,0,0,0-.17,4.26,4.26,0,0,1-.44-1.2,7.19,7.19,0,0,0-.45-1.33.74.74,0,0,1-.41-.73,1.07,1.07,0,0,1,.41-.87.65.65,0,0,1,.06-.5.65.65,0,0,0,.06-.5,7.74,7.74,0,0,0,1.1-2.13,5.43,5.43,0,0,1,1.33-2.13.93.93,0,0,1,.59-1,.42.42,0,0,1,.15-.37l.33-.23a6.92,6.92,0,0,0,.65-.9,2.66,2.66,0,0,1,.77-.83,4.89,4.89,0,0,0,.74-.7c.3-.33.4-.57.33-.7l.47-.3c.16-.11.18-.28.06-.5a1.44,1.44,0,0,0,.65-.73,1.13,1.13,0,0,1,.65-.67,1.13,1.13,0,0,1,.12-.73.8.8,0,0,1,.65-.4c.08-.09.1-.15.06-.17s-.06-.1-.06-.23a2.42,2.42,0,0,0,.36.1c.12,0,.17-.08.17-.3a1.18,1.18,0,0,0,1.13.23.92.92,0,0,1,1.07.37.89.89,0,0,1,.68,0,.53.53,0,0,0,.62-.2.61.61,0,0,0,.47.36,1.52,1.52,0,0,0,.6,0c.19,0,.38-.08.56-.1a.47.47,0,0,1,.44.17c.16,0,.24,0,.24-.1s.08-.15.24-.1a7.16,7.16,0,0,0,1,.46c.34.14.55.49.63,1.07,0,.09.09.1.17,0s.18,0,.3,0a3.06,3.06,0,0,1,0,1.3,3.52,3.52,0,0,0-.15,1,.93.93,0,0,0-.47,1.13c-.2.31-.4.6-.59.87l-.6.8A.36.36,0,0,0,166,47a.3.3,0,0,1-.27.13v-.33a1.24,1.24,0,0,0-.44.5.9.9,0,0,1-.45.43c0-.26-.16-.4-.35-.4H164a1.1,1.1,0,0,0-.38-.36c-.18-.11-.23-.24-.15-.37s-.05-.11-.15-.07-.15.09-.15.14c-.08-.27-.21-.38-.41-.34s-.36-.11-.47-.46c-.2.49-.38,1-.54,1.46a2.42,2.42,0,0,1-.83,1.2.55.55,0,0,0,.06.33s0,.16-.12.34a2.13,2.13,0,0,1-.26.26l-.27.27a.44.44,0,0,0-.09.37c0,.15-.07.19-.26.1,0,.09.05.13.17.13s-.16.2-.47.2c-.12.49-.25,1-.39,1.4s-.26.91-.38,1.4c-.24,0-.36,0-.36-.07a1.07,1.07,0,0,1-.62.47,1.44,1.44,0,0,1-.68,0,6.36,6.36,0,0,1-.77-.26,2.39,2.39,0,0,0-.89-.17,1,1,0,0,0,.56.37.84.84,0,0,1,.57.43,1.64,1.64,0,0,1,.18.6,3.13,3.13,0,0,0,.17.73,2.29,2.29,0,0,0,.3.5.71.71,0,0,1,.18.37,1,1,0,0,1-.09.27c-.06.13-.09.17-.09.13a.74.74,0,0,0,0,.47,2.12,2.12,0,0,0,.21.36,1.56,1.56,0,0,1,.17.37.89.89,0,0,1,0,.46A1.93,1.93,0,0,1,158.22,58.77ZM151.64,68.9a1.31,1.31,0,0,0,.24.3,1,1,0,0,1,.24.3,2.18,2.18,0,0,1-.09.63,1.47,1.47,0,0,0,0,.77.88.88,0,0,0-.54-.4l-.59-.14a.62.62,0,0,1-.06-.26c0-.09-.1-.16-.29-.2.07-.23.12-.37.14-.44a2.33,2.33,0,0,0,0-.5A4.28,4.28,0,0,0,151.64,68.9Zm6.22-11.46c-.12.18-.2.18-.23,0S157.66,57.26,157.86,57.44Zm25.47,20.32c.12.26.18.29.18.06S183.45,77.58,183.33,77.76Zm3.79-9.6q-.17,0,0-.33a.34.34,0,0,0-.35.1c-.12.11-.14.19-.06.23q.06-.25.21,0C187,68.34,187.09,68.34,187.12,68.16Zm.24-.53.24.1s.08,0,.12-.17A.26.26,0,0,0,187.36,67.63Zm.3,10.13c0-.05.1,0,.18.2q-.12,0-.12.06S187.66,77.93,187.66,77.76Zm.18-8c.07.4.21.6.41.6.28-.4.26-.69-.06-.86C188.23,69.76,188.11,69.85,187.84,69.76ZM188,62.3c.12-.09.18,0,.18.17s-.06.25-.18.16Zm.18,14.86q-.12,0-.12.06l.24.07.24-.07c0-.17,0-.26-.09-.26a.76.76,0,0,0-.27.07.13.13,0,0,0-.06-.11s-.06,0-.06.11S188.19,77.07,188.19,77.16Zm.59-.93a.28.28,0,0,1,.06-.2.32.32,0,0,0,.06-.2h-.29C188.61,76.09,188.66,76.23,188.78,76.23Zm1.07-.6q-.18.06-.06-.24t-.12-.3a.49.49,0,0,0,0,.44C189.7,75.68,189.77,75.71,189.85,75.63Zm.3-.74c-.16.14-.23.26-.21.37s.06.17.12.17a.19.19,0,0,0,.15-.1A.79.79,0,0,0,190.15,74.89Zm.11-.06a.83.83,0,0,1,.06-.34c0-.09,0-.15-.17-.2C190,74.47,190,74.65,190.26,74.83Zm.18-.6c-.08,0-.12-.11-.12-.34s.06-.28.18-.2A.85.85,0,0,1,190.44,74.23Z"/><path class="cls-2" d="M224,69.5c0,.13-.1.16-.18.1a.26.26,0,0,1-.06-.3.6.6,0,0,0-.06.6c-.2-.05-.29.09-.29.4s-.08.49-.24.53-.12.2,0,.2a1.49,1.49,0,0,0-.59.86q-.18.08-.24-.06a6.31,6.31,0,0,1-1.21,1.26l-1.34,1.07a1.18,1.18,0,0,1-.59.8c-.28.13-.57.27-.89.4s-.53.27-.77.4a4.46,4.46,0,0,1-.77.33,1.39,1.39,0,0,0-.86,0,4.17,4.17,0,0,1-1.09.14,13.56,13.56,0,0,0-1.9.26,9.93,9.93,0,0,1-2,.2,5,5,0,0,1-1.22,0,12.43,12.43,0,0,0-1.33-.07s-.06,0-.06.1a.24.24,0,0,1-.06.17.41.41,0,0,1-.06-.27,9.69,9.69,0,0,1-1.42-.2,1.62,1.62,0,0,1-1-.79,1.39,1.39,0,0,1-.74-.5,1.59,1.59,0,0,0-.74-.57,7,7,0,0,0-1.36-1.5,8.49,8.49,0,0,1-1.42-1.5,3.84,3.84,0,0,0-.33-.86,2,2,0,0,1-.2-.94c-.08-.09-.14-.13-.18-.13a2.42,2.42,0,0,0,0-.87,1.82,1.82,0,0,1,0-.86,6.14,6.14,0,0,0-.27-.64,2.3,2.3,0,0,1-.21-.76,2.68,2.68,0,0,0-.14-.57,1.33,1.33,0,0,1-.09-.7c0-.09,0-.12.06-.1s.06,0,.06,0a.45.45,0,0,0,.08-.3q0-.1.21-.3a.83.83,0,0,1,.83-.23,3.3,3.3,0,0,1,1,.36l.26.27a3.44,3.44,0,0,1,.27.27h.24a4.4,4.4,0,0,1,.53.73,2.2,2.2,0,0,1,.3.87c.08.48.18,1.08.32,1.79a3.69,3.69,0,0,1-.09,1.94,1.43,1.43,0,0,0,.45-.47.47.47,0,0,1,.44-.27.65.65,0,0,1,.65.34,1,1,0,0,0,.54.46v.34q.12-.14.12,0c0,.08.08.11.23.06a3.93,3.93,0,0,1,.24.5,1.62,1.62,0,0,0,.3.5.39.39,0,0,0,.23.07c.08,0,.12.06.12.2a1.16,1.16,0,0,1,.62-.6,1.58,1.58,0,0,0,.69-.47,4.13,4.13,0,0,0,1.56,0,1.86,1.86,0,0,1,1.69.5,6.43,6.43,0,0,1,.06-.8.56.56,0,0,1,.54-.53.14.14,0,0,0,.14-.1c0-.07,0-.1.09-.1H213v.06a.17.17,0,0,0,.12-.06l.12-.14h.35a.64.64,0,0,0,.24-.13.25.25,0,0,1,.18-.07.18.18,0,0,1,.2,0,.17.17,0,0,0,.21,0,5.69,5.69,0,0,0,.59-.16,4.5,4.5,0,0,1,.6-.17.65.65,0,0,1,0,.73c.15,0,.22,0,.2-.16a.7.7,0,0,1,0-.37c.2-.44.39-.88.57-1.3a8.51,8.51,0,0,0,.44-1.56A10,10,0,0,0,217,64.9a14.79,14.79,0,0,0-.12-1.87l-.18-.2a2.91,2.91,0,0,0-.56-1.43,9.77,9.77,0,0,0-1-1.06c-.35-.34-.72-.66-1.09-1a5.24,5.24,0,0,1-1-1.07,5.4,5.4,0,0,1-1.81-1.39A9.14,9.14,0,0,1,210,54.84c-.16.18-.3.35-.41.5a.56.56,0,0,1-.48.23.68.68,0,0,1-.62-.23,1.61,1.61,0,0,1-.45-.63,15.88,15.88,0,0,0-1.45-1.14c-.45-.31-.9-.64-1.33-1a.49.49,0,0,0-.12-.34.17.17,0,0,0-.12-.06.15.15,0,0,1-.11-.07,2.48,2.48,0,0,1-.48-.83c-.12-.34-.24-.64-.35-.9a15.53,15.53,0,0,1-.66-1.8,9.26,9.26,0,0,1-.23-1.27,2.17,2.17,0,0,0-.48-1.13v.3c0,.33,0,.71,0,1.13s0,.81-.08,1.17-.08.51-.12.46c.08-.22.09-.37,0-.46a1.2,1.2,0,0,1-.15-.4v-.27q0-.13.12,0c0-.09,0-.13-.09-.13s-.07,0,0-.13a14.64,14.64,0,0,0,.38-2.6,17.51,17.51,0,0,1,.33-2.53c.12-.54.23-1.06.32-1.57a12.7,12.7,0,0,1,.39-1.5q.18-.66.33-1.5a10.46,10.46,0,0,1,.38-1.56c-.08-.05-.12,0-.12.16s-.06.19-.18.1a1.31,1.31,0,0,0,.27-.63,3.23,3.23,0,0,1,.21-.77h.06a.05.05,0,0,0,.06-.06,4.22,4.22,0,0,0,.2-.6,3.13,3.13,0,0,1,.27-.67l.21-.23a.91.91,0,0,0,.15-.23,1.64,1.64,0,0,0,.11-.6,1.93,1.93,0,0,1,.12-.67,6.78,6.78,0,0,1,.3-.9,2,2,0,0,0,.06-1.1q.12,0,.12.33.12,0,.12-.06c0-.05,0,0,.11.06a2.39,2.39,0,0,0,0-.46,2,2,0,0,1,0-.4c.2,0,.31,0,.33-.17a.35.35,0,0,1,.21-.3.21.21,0,0,1,.18.07.21.21,0,0,0,.17.07q-.12-.13.06-.3c.12-.11.14-.15.06-.1s0-.15,0-.17l.18-.07.15-.06s0-.1,0-.24,0-.11.12-.06a.38.38,0,0,0,.17.06.59.59,0,0,1,.39-.16c.18,0,.27-.15.27-.37a.4.4,0,0,0,.47.1.65.65,0,0,1,.47,0s0-.07.12-.2a.39.39,0,0,0,.36.1c.15,0,.19-.17.11-.44a1.4,1.4,0,0,1,.39,0,.41.41,0,0,0,.27,0,.15.15,0,0,0,0-.2c-.06,0-.09,0-.09.07-.08-.09,0-.16.09-.2s.16-.16.09-.33.08-.09.14,0,.05.15,0,.2c.08-.05.18,0,.3.13a.28.28,0,0,0,.15-.2.28.28,0,0,1,.15-.2.32.32,0,0,0-.09-.23.21.21,0,0,1,0-.24l.21-.26c.09-.14.16-.09.2.13q-.12-.14-.12,0c0,.12-.08.15-.23.1a.21.21,0,0,0,.12.2l.23.14c0-.09,0-.14,0-.14s0,0,0-.13-.12.05-.12.13,0-.11.09-.2l.27-.2c0,.09,0,.14-.06.14a.41.41,0,0,0,.21.2.7.7,0,0,1,.26.2c-.15.22-.18.31-.08.26s.12.05.08.27a.3.3,0,0,0,.12-.47c.16-.13.29-.12.39,0a1.42,1.42,0,0,0,.32.36.46.46,0,0,1,.27,0c.06,0,.15,0,.27-.1,0,.13,0,.24.17.33,0-.13.18-.2.42-.2l.12-.26a.83.83,0,0,0,.06-.34c.07,0,.12,0,.14.17s.07.19.15.1.09.09,0,.13a.17.17,0,0,1-.21,0c0,.18.06.2.18.07s.18-.09.18.13c.08,0,.12-.09.12-.26.2-.05.29,0,.29.16s.14.24.42.24c0,.22.06.35.18.4a1.08,1.08,0,0,1,.41.33c-.08-.18-.07-.24,0-.2a.38.38,0,0,1,.21.27s.06,0,.06-.07,0,0,.12,0c-.08.13,0,.23.17.3a1.79,1.79,0,0,1,.48.23,2.84,2.84,0,0,0,.71.87q-.12.33,0,.33c.08.05.09.08,0,.1s-.09.08-.09.17.21.42.38.73a4.11,4.11,0,0,0,.51.73q.12.14.24.3l.23.37c.24.36.48.74.71,1.17s.46.83.65,1.23a1.35,1.35,0,0,0,.15.26,2.47,2.47,0,0,0,.21.27,5.89,5.89,0,0,1,.18.57.54.54,0,0,0,.35.36l-.06.14a1.39,1.39,0,0,1,.45.9,1,1,0,0,1-.21,1c0,.09,0,.12.12.1s.1,0,.06.1a1.92,1.92,0,0,0,.06,1.06,1.48,1.48,0,0,1-.18,1.2c.08.09.11.15.09.17a.85.85,0,0,0-.09.23,1.37,1.37,0,0,1,.27.54,1.25,1.25,0,0,0,.26.53.41.41,0,0,1-.12.17.38.38,0,0,0-.11.16,1.3,1.3,0,0,0,.29.44,1.27,1.27,0,0,1,.3.43,1.46,1.46,0,0,0,0,.83,1.68,1.68,0,0,0,.47.77.68.68,0,0,1-.53.2c0,.09.06.15.18.2a.53.53,0,0,1-.68.16q-.45-.16-.63,0a6,6,0,0,1-2.19-2.3,20,20,0,0,1-1.3-3s-.06,0-.06,0a2.18,2.18,0,0,0-.71-1.27A3.21,3.21,0,0,0,217,37,4.25,4.25,0,0,0,216,35.82a3.44,3.44,0,0,0-1.66-.63,1,1,0,0,1-.74.3,2.07,2.07,0,0,0-.8.1,4.7,4.7,0,0,0-1.74,1,9.76,9.76,0,0,0-1.34,1.46q0,.21.12,0t.12-.06c0,.31-.11.39-.21.23s-.2-.19-.32-.1a3.1,3.1,0,0,0,.29.5c.12.15,0,.32-.29.5a.93.93,0,0,1,0,.7,4.76,4.76,0,0,1-.36.6,3.73,3.73,0,0,0-.35.6.65.65,0,0,0,0,.63c-.08.09-.12.11-.12.07s0-.07-.12-.07a1.94,1.94,0,0,1-.21.6c-.1.18-.25.2-.44.07a3.14,3.14,0,0,0,.12.83,2.22,2.22,0,0,1,0,1,.36.36,0,0,1-.09.24.32.32,0,0,0-.09.23,10.38,10.38,0,0,0-.18,2,2.87,2.87,0,0,1-.41,1.63c-.08,0-.15,0-.21.07s-.13.11-.21.06a1.82,1.82,0,0,0,.15.27q.09.14-.21.06a.67.67,0,0,0,.3.27c0,.05-.06-.12-.06-.5v-2.9c0,.05.06.07.18.07.08.49.13,1.06.17,1.7a6.81,6.81,0,0,1,0,1.56,1.07,1.07,0,0,0-.3.17.53.53,0,0,1-.36.1,2.76,2.76,0,0,1,1.31,1,5.44,5.44,0,0,1,.83,1.63,1.82,1.82,0,0,1,.56-1.13,3.79,3.79,0,0,1,1.09-.67c0,.09,0,.13,0,.13s0,0,0,.07.2.11.26.07a.31.31,0,0,1,.21-.07,6.47,6.47,0,0,0,.65,1.07,2.62,2.62,0,0,1,.48,1.2.76.76,0,0,0,.35.06,1,1,0,0,0,.36.5.77.77,0,0,1,.29.5c.36-.18.59-.2.71-.07a.05.05,0,0,0,.06-.06c0-.05,0-.07.06-.07a2.44,2.44,0,0,1,1.3.57c.32.29.66.56,1,.83,0,.09,0,.14,0,.17s0,.08,0,.16a.48.48,0,0,1,.48-.13.37.37,0,0,1,.29.4q.12.07.15,0s.07,0,.15,0l1.78,1.13a7.09,7.09,0,0,0,2.07.87.54.54,0,0,0,.41.33.65.65,0,0,1,.42.27s.06,0,.06-.13a1.39,1.39,0,0,0,.65.33v.2a1.15,1.15,0,0,0,.53.23,1.57,1.57,0,0,1,.65.3,1.32,1.32,0,0,1,.09.3,1.2,1.2,0,0,0,.15.37,2.42,2.42,0,0,0,.27.36,2.81,2.81,0,0,0,.26.3s.05,0,0,.07a.11.11,0,0,0,0,.13.57.57,0,0,0,.21.17.4.4,0,0,1,.15.1.11.11,0,0,1,0,.13s0,0,0,0,0,.07.06.07a.15.15,0,0,1,.12.07,2.17,2.17,0,0,1,.11.66.36.36,0,0,0,.3.4v.27q.12.13.12,0V61.9a.39.39,0,0,1,.12.24V62c.12.09.11.23,0,.43s-.15.3,0,.3a3.38,3.38,0,0,0-.06.6,1.05,1.05,0,0,1-.24.6c0-.18-.11-.22-.21-.13a.16.16,0,0,1-.26,0c-.08,0-.12.22-.12.53.08-.09.14-.13.18-.13s.08,0,0,.1,0,.1.12.1q-.06.19-.18.06c-.08-.08-.14,0-.18.2s.08.13.12.1.12,0,.24.1l-.15.17s.05.08.09.3a1.21,1.21,0,0,1-.24.07s-.1-.05-.18-.14q-.06.27.09.24a.93.93,0,0,1,.27,0c0,.14-.09.28-.15.44a.38.38,0,0,1-.39.23,1.59,1.59,0,0,0,.12,1.13,5.24,5.24,0,0,0-.12,1A.91.91,0,0,1,224,69a.38.38,0,0,0,0,.3c0,.07,0,.13-.12.17S223.91,69.5,224,69.5Zm-22-22a.11.11,0,0,1-.09-.07.11.11,0,0,0-.09-.07q.06-.14.15-.06C202.08,47.29,202.09,47.36,202.05,47.45Zm.83.06c-.16,0-.19-.11-.09-.2S202.92,47.29,202.88,47.51Zm.18.4a.39.39,0,0,1-.12-.26A.27.27,0,0,1,203.06,47.91Zm.24.73h-.12v-.13h.12Zm3.25-.33-.11-.13c0,.09,0,.12-.09.1s-.15,0-.15.1c.2,0,.31,0,.35.13Zm1.9-20a.46.46,0,0,0,.09-.17q0-.11.15,0a.19.19,0,0,0-.12.16C208.57,28.36,208.53,28.37,208.45,28.33Zm.92-.4c0-.18,0-.23.15-.14v.14Q209.4,28.19,209.37,27.93Zm9.09,1.73q-.06-.33-.18-.27T218.46,29.66Zm7.17,32.78c.08-.14.17-.15.26,0s.13.21.09.3a.13.13,0,0,1-.14-.13C225.81,62.48,225.75,62.44,225.63,62.44Zm.06.13c.12,0,.18.18.18.4-.12,0-.17,0-.15-.14A.4.4,0,0,0,225.69,62.57Z"/></g></g></svg>